<svg width="190" height="60" viewBox="0 0 190 60" fill="none" xmlns="http://www.w3.org/2000/svg">
<rect x="0.783691" width="189.217" height="59.8081" rx="4" fill="#006A3E"/>
<path d="M41.1674 28.9524C41.1674 24.3173 45.0109 22.0745 45.1587 21.9249C42.9413 18.785 39.6892 18.3364 38.5065 18.1869C35.6979 17.8879 32.8892 19.8316 31.5587 19.8316C30.0805 19.8316 27.8631 18.1869 25.4979 18.1869C22.3936 18.1869 19.5849 19.9812 17.9588 22.8221C14.7066 28.5038 17.0718 36.877 20.1762 41.5121C21.8023 43.7549 23.5762 46.2968 25.9414 46.1473C28.3066 45.9977 29.1935 44.6521 32.0022 44.6521C34.8109 44.6521 35.55 46.1473 38.0631 46.1473C40.5761 46.1473 42.2022 43.9045 43.6804 41.6616C45.4544 39.1198 46.1935 36.5779 46.1935 36.4284C46.0457 36.2789 41.1674 34.4847 41.1674 28.9524Z" fill="white"/>
<path d="M36.5881 15.1962C37.7707 13.5514 38.6577 11.4581 38.5098 9.21533C36.7359 9.36485 34.3707 10.4115 33.1881 12.0562C32.0055 13.4019 30.9707 15.6447 31.2664 17.738C33.1881 17.8875 35.2577 16.6914 36.5881 15.1962Z" fill="white"/>
<path d="M74.8703 37.8687H71.6182L69.8443 32.1869H63.6356L61.8617 37.8687H58.7573L64.8182 18.5806H68.6616L74.8703 37.8687ZM69.253 29.7946L67.6269 24.7109C67.479 24.2623 67.1834 22.9167 66.5921 21.1224C66.4443 21.87 66.1486 23.2157 65.7051 24.7109L64.0791 29.7946H69.253Z" fill="white"/>
<path d="M90.69 30.8408C90.69 33.2331 90.0987 35.0274 88.7683 36.5226C87.5857 37.7187 86.2553 38.3168 84.4814 38.3168C82.7075 38.3168 81.377 37.7187 80.6379 36.3731V43.6996H77.5336V28.7475C77.5336 27.2523 77.5336 25.7571 77.3857 24.1124H80.0466L80.1944 26.3552C81.2292 24.7105 82.7075 23.8134 84.777 23.8134C86.4031 23.8134 87.7335 24.4114 88.7683 25.7571C90.0987 26.9533 90.69 28.598 90.69 30.8408ZM87.5857 30.8408C87.5857 29.4951 87.29 28.299 86.6987 27.5514C86.1074 26.6542 85.2205 26.2057 84.0379 26.2057C83.2988 26.2057 82.5596 26.5047 81.9683 26.9533C81.377 27.4018 80.9336 28.1494 80.7857 28.897C80.6379 29.3456 80.6379 29.6446 80.6379 29.7942V32.1865C80.6379 33.2331 80.9336 33.9807 81.5249 34.7283C82.1162 35.4759 83.0031 35.775 83.8901 35.775C85.0727 35.775 85.9596 35.3264 86.5509 34.4293C87.1422 33.5322 87.5857 32.336 87.5857 30.8408Z" fill="white"/>
<path d="M106.511 30.8408C106.511 33.2331 105.92 35.0274 104.589 36.5226C103.407 37.7187 102.076 38.3168 100.302 38.3168C98.5283 38.3168 97.1978 37.7187 96.4587 36.3731V43.6996H93.3544V28.7475C93.3544 27.2523 93.3544 25.7571 93.2065 24.1124H95.8674L96.0152 26.3552C97.05 24.7105 98.5283 23.8134 100.598 23.8134C102.224 23.8134 103.554 24.4114 104.589 25.7571C105.92 26.9533 106.511 28.598 106.511 30.8408ZM103.407 30.8408C103.407 29.4951 103.111 28.299 102.52 27.5514C101.928 26.6542 101.041 26.2057 99.8587 26.2057C99.1196 26.2057 98.3804 26.5047 97.7891 26.9533C97.1978 27.4018 96.7544 28.1494 96.6065 28.897C96.4587 29.3456 96.4587 29.6446 96.4587 29.7942V32.1865C96.4587 33.2331 96.7544 33.9807 97.3457 34.7283C97.937 35.4759 98.8239 35.775 99.7109 35.775C100.893 35.775 101.78 35.3264 102.372 34.4293C102.963 33.5322 103.407 32.336 103.407 30.8408Z" fill="white"/>
<path d="M124.097 32.4855C124.097 34.1302 123.505 35.4759 122.471 36.5226C121.288 37.7187 119.514 38.1673 117.297 38.1673C115.227 38.1673 113.601 37.7187 112.418 36.9711L113.158 34.4293C114.488 35.1769 115.966 35.6254 117.592 35.6254C118.775 35.6254 119.662 35.3264 120.253 34.8778C120.845 34.2797 121.14 33.6817 121.14 32.7845C121.14 32.0369 120.845 31.2893 120.401 30.8408C119.81 30.2427 118.923 29.7941 117.74 29.3456C114.34 28.1494 112.714 26.2056 112.714 23.8133C112.714 22.1686 113.305 20.9724 114.488 19.9257C115.671 18.8791 117.149 18.4305 119.218 18.4305C120.992 18.4305 122.323 18.7296 123.505 19.3277L122.766 21.8695C121.731 21.2714 120.549 20.9724 119.071 20.9724C118.036 20.9724 117.149 21.2714 116.558 21.72C116.114 22.1686 115.818 22.7666 115.818 23.5142C115.818 24.2619 116.114 24.8599 116.705 25.458C117.149 25.9066 118.184 26.3551 119.514 26.9532C121.14 27.5513 122.323 28.4484 123.21 29.3456C123.801 30.0932 124.097 31.1398 124.097 32.4855Z" fill="white"/>
<path d="M134.296 26.355H130.896V33.0834C130.896 34.7281 131.487 35.6252 132.67 35.6252C133.261 35.6252 133.704 35.6252 134 35.4757L134.148 37.868C133.557 38.1671 132.817 38.1671 131.783 38.1671C130.6 38.1671 129.565 37.868 128.974 37.1204C128.235 36.3728 127.939 35.1767 127.939 33.3824V26.355H125.87V23.9626H127.939V21.4208L130.896 20.5237V23.9626H134.296V26.355Z" fill="white"/>
<path d="M149.525 30.8403C149.525 32.9336 148.934 34.7279 147.751 36.0736C146.421 37.4193 144.794 38.1669 142.725 38.1669C140.655 38.1669 139.029 37.4193 137.847 36.0736C136.664 34.7279 136.073 33.0831 136.073 30.9899C136.073 28.8966 136.664 27.1023 137.994 25.7566C139.177 24.4109 140.951 23.6633 143.021 23.6633C145.09 23.6633 146.716 24.4109 147.899 25.7566C148.934 27.1023 149.525 28.747 149.525 30.8403ZM146.273 30.9899C146.273 29.6442 145.977 28.5975 145.386 27.7004C144.794 26.6537 143.76 26.0557 142.577 26.0557C141.394 26.0557 140.36 26.6537 139.768 27.7004C139.177 28.5975 138.881 29.7937 138.881 30.9899C138.881 32.3355 139.177 33.3822 139.768 34.2793C140.36 35.326 141.394 35.924 142.577 35.924C143.76 35.924 144.647 35.326 145.386 34.2793C145.977 33.3822 146.273 32.186 146.273 30.9899Z" fill="white"/>
<path d="M159.424 26.6545C159.129 26.6545 158.833 26.5049 158.39 26.5049C157.355 26.5049 156.468 26.9535 155.877 27.7011C155.433 28.4487 155.137 29.3458 155.137 30.3925V37.719H152.033V28.1497C152.033 26.5049 152.033 25.1593 151.885 23.8136H154.546L154.694 26.5049H154.842C155.137 25.6078 155.729 24.8602 156.32 24.2621C157.059 23.8136 157.798 23.5145 158.537 23.5145C158.833 23.5145 159.129 23.5145 159.276 23.5145V26.6545H159.424Z" fill="white"/>
<path d="M173.029 30.2422C173.029 30.8403 173.029 31.2889 172.881 31.5879H163.716C163.716 32.9336 164.16 33.9803 165.047 34.7279C165.786 35.326 166.821 35.7745 168.003 35.7745C169.334 35.7745 170.664 35.625 171.699 35.1764L172.142 37.2697C170.812 37.8678 169.334 38.1669 167.56 38.1669C165.49 38.1669 163.716 37.5688 162.534 36.2231C161.351 35.0269 160.76 33.2327 160.76 31.1394C160.76 29.0461 161.351 27.2518 162.386 25.9061C163.568 24.4109 165.195 23.6633 167.264 23.6633C169.186 23.6633 170.812 24.4109 171.699 25.9061C172.586 27.1023 173.029 28.5975 173.029 30.2422ZM170.073 29.4946C170.073 28.5975 169.925 27.8499 169.481 27.1023C168.89 26.2052 168.151 25.7566 167.116 25.7566C166.081 25.7566 165.342 26.2052 164.751 26.9528C164.308 27.5509 164.012 28.448 163.864 29.3451H170.073V29.4946Z" fill="white"/>
</svg>
