<svg width="24" height="29" viewBox="0 0 24 29" fill="none" xmlns="http://www.w3.org/2000/svg">
<path d="M19.2932 15.1192C19.2932 11.578 22.2296 9.86455 22.3425 9.75032C20.6485 7.35145 18.1639 7.00875 17.2604 6.89452C15.1146 6.66605 12.9688 8.15107 11.9523 8.15107C10.8229 8.15107 9.12889 6.89452 7.32189 6.89452C4.95021 6.89452 2.8044 8.2653 1.56209 10.4357C-0.922526 14.7765 0.88447 21.1735 3.25615 24.7147C4.49846 26.4282 5.85371 28.3702 7.6607 28.2559C9.4677 28.1417 10.1453 27.1136 12.2911 27.1136C14.4369 27.1136 15.0016 28.2559 16.9216 28.2559C18.8415 28.2559 20.0838 26.5424 21.2132 24.829C22.5684 22.887 23.1331 20.9451 23.1331 20.8308C23.0202 20.7166 19.2932 19.3458 19.2932 15.1192Z" fill="white"/>
<path d="M15.7947 4.60966C16.6982 3.3531 17.3758 1.75385 17.2629 0.0403595C15.9076 0.154592 14.1006 0.954219 13.1971 2.21077C12.2936 3.23887 11.5031 4.95235 11.7289 6.55161C13.1971 6.66584 14.7782 5.75198 15.7947 4.60966Z" fill="white"/>
</svg>
