<svg width="154" height="110" viewBox="0 0 154 110" fill="none" xmlns="http://www.w3.org/2000/svg">
<path fill-rule="evenodd" clip-rule="evenodd" d="M47.626 91.6207C47.626 82.0987 55.3451 74.3795 64.8672 74.3795H97.4344C106.956 74.3795 114.676 82.0987 114.676 91.6207C114.676 101.143 106.956 108.862 97.4344 108.862H64.8672C55.3451 108.862 47.626 101.143 47.626 91.6207Z" fill="#B6F3D9"/>
<mask id="mask0" mask-type="alpha" maskUnits="userSpaceOnUse" x="47" y="74" width="68" height="35">
<path fill-rule="evenodd" clip-rule="evenodd" d="M47.626 91.6207C47.626 82.0987 55.3451 74.3795 64.8672 74.3795H97.4344C106.956 74.3795 114.676 82.0987 114.676 91.6207C114.676 101.143 106.956 108.862 97.4344 108.862H64.8672C55.3451 108.862 47.626 101.143 47.626 91.6207Z" fill="white"/>
</mask>
<g mask="url(#mask0)">
<path d="M46.8887 99.6593C46.8887 99.6593 61.7475 106.79 81.7486 102.45C101.75 98.1088 96.1836 111.076 96.1836 111.076" stroke="white" stroke-width="18"/>
<path d="M41.7959 96.3315C41.7959 96.3315 58.9288 85.6893 64.463 87.8603C69.9972 90.0312 64.1482 92.9657 69.0337 94.8178C73.6562 96.5702 94.1741 90.9449 99.6043 91.4284C105.035 91.9119 100.865 98.3784 114.866 94.4794" stroke="white" stroke-width="18"/>
</g>
<rect x="79.2339" y="13.9681" width="50.0095" height="50.0095" rx="25.0048" fill="#6DE7B4"/>
<path fill-rule="evenodd" clip-rule="evenodd" d="M31.3806 0H5.09107C4.04329 0 3.18604 0.860891 3.18604 1.91311V44.0015C3.18604 45.0537 4.04329 45.9146 5.09107 45.9146H31.3806C32.4284 45.9146 33.2856 45.0537 33.2856 44.0015V1.91311C33.2856 0.860891 32.4284 0 31.3806 0Z" fill="#1C1F26"/>
<path fill-rule="evenodd" clip-rule="evenodd" d="M28.8293 0H2.5398C1.49202 0 0.634766 0.860891 0.634766 1.91311V44.0015C0.634766 45.0537 1.49202 45.9146 2.5398 45.9146H28.8293C29.8771 45.9146 30.7343 45.0537 30.7343 44.0015V1.91311C30.7343 0.860891 29.8771 0 28.8293 0Z" fill="#6DE7B4"/>
<rect x="2.93018" y="5.35669" width="25.5081" height="33.4156" fill="#F6F9FF"/>
<path fill-rule="evenodd" clip-rule="evenodd" d="M17.7464 41.2006H13.0723C12.5 41.2006 12.0229 41.6784 12.0229 42.2519C12.0229 42.8254 12.4999 43.3032 13.0723 43.3032H17.7464C18.3187 43.3032 18.7957 42.8254 18.7957 42.2519C18.7957 41.6784 18.3187 41.2006 17.7464 41.2006Z" fill="white"/>
<path fill-rule="evenodd" clip-rule="evenodd" d="M19.4637 2.30273H11.8324C11.5462 2.30273 11.3555 2.4939 11.3555 2.78055C11.3555 3.0673 11.5463 3.25837 11.8324 3.25837H19.4637C19.7499 3.25837 19.9406 3.0672 19.9406 2.78055C19.9406 2.49381 19.7498 2.30273 19.4637 2.30273Z" fill="white"/>
<path d="M22.5239 28.4273V27.9273H22.0239H21.2604C20.4737 27.9273 19.7563 27.2749 19.7563 26.4128V12.9829C19.7563 12.1857 20.4091 11.4684 21.2604 11.4684H44.5459C45.3327 11.4684 46.05 12.1208 46.05 12.9829V26.4128C46.05 27.2099 45.3973 27.9273 44.5459 27.9273H26.3183H26.089L25.9394 28.101L22.5239 32.0684V28.4273Z" fill="white" stroke="#1C1F26"/>
<circle cx="28.6939" cy="19.8965" r="1.27541" fill="#00B77E"/>
<circle cx="32.7749" cy="19.8965" r="1.27541" fill="#00B77E"/>
<circle cx="36.856" cy="19.8965" r="1.27541" fill="#00B77E"/>
<path fill-rule="evenodd" clip-rule="evenodd" d="M117.136 96.4908C118.108 97.6153 119.522 98.2616 121.009 98.2616C122.872 98.2616 124.589 97.2489 125.49 95.6177L126.107 94.5018C127.364 92.226 127.309 89.4475 125.968 87.22C124.753 85.2015 124.584 82.7161 125.519 80.5535L125.845 79.7981C126.692 77.8403 126.602 75.6039 125.601 73.7203L125.189 72.9439C124.455 71.5635 124.385 69.9256 124.997 68.4874L125.192 68.0295C125.851 66.4823 125.566 64.6946 124.46 63.4284L124.401 63.361C123.456 62.2793 123.126 60.7912 123.525 59.4115L123.851 58.2866C124.35 56.5612 123.292 54.7717 121.539 54.3781C119.683 53.961 117.888 55.2906 117.747 57.1886L117.521 60.2333L115.752 64.5753C115.134 66.0913 115.271 67.8103 116.122 69.2091C116.998 70.6513 117.116 72.4308 116.435 73.9755L115.38 76.3729C114.555 78.2455 114.518 80.3711 115.277 82.2712C115.984 84.0406 116.002 86.0106 115.329 87.7929L115.143 88.2846C114.187 90.8151 114.693 93.6661 116.463 95.7122L117.136 96.4908Z" fill="#40C5C4"/>
<path fill-rule="evenodd" clip-rule="evenodd" d="M118.624 108.742H124.19L126.075 100.397H116.92L118.624 108.742Z" fill="#1C1F26"/>
<path d="M121.498 100.398L120.815 57.4563" stroke="#1C1F26"/>
<circle cx="47.8066" cy="9.31046" r="9.31046" fill="#E5E9F3"/>
<mask id="mask1" mask-type="alpha" maskUnits="userSpaceOnUse" x="38" y="0" width="20" height="19">
<circle cx="47.8066" cy="9.31046" r="9.31046" fill="white"/>
</mask>
<g mask="url(#mask1)">
<path fill-rule="evenodd" clip-rule="evenodd" d="M53.3867 21.6632L54.4184 23.7073C54.9417 24.7441 56.0042 25.398 57.1656 25.398C58.1235 25.398 59.0267 24.9519 59.609 24.1914L63.9837 18.477L62.3972 17.6427L57.1847 21.6632L56.3232 20.1716L53.3867 21.6632Z" fill="#A93E43"/>
<path fill-rule="evenodd" clip-rule="evenodd" d="M45.6443 12.6689C42.4505 13.4168 40.436 16.5754 41.1047 19.7867L41.6433 22.3735L42.096 23.1462C42.8145 24.3726 43.156 25.7835 43.0777 27.2027H52.5201L52.0881 23.2995L52.3068 23.2494C52.9836 23.0943 53.4633 22.4921 53.4633 21.7979L56.9693 21.124L56.7206 20.5784C54.7047 16.154 50.4834 13.1396 45.6443 12.6689Z" fill="#006A3E"/>
<path fill-rule="evenodd" clip-rule="evenodd" d="M42.3184 21.9406L45.5525 19.8141L46.492 20.9372L54.7075 16.8294C54.8442 16.7611 54.9877 16.7071 55.1356 16.6685L57.6102 16.0216C57.7546 15.9838 57.8956 16.0928 57.8956 16.242C57.8956 16.3287 57.8465 16.4079 57.7688 16.4463L56.5077 17.0697V17.7284C56.5077 18.2928 56.1735 18.8036 55.6564 19.0297L55.4631 19.1143C55.1223 19.2633 54.7281 19.2211 54.4266 19.0032L49.2307 24.0221C48.6867 24.5474 47.9864 24.8812 47.2357 24.9728C46.1734 25.1024 45.1105 24.7357 44.3541 23.9785L42.3184 21.9406Z" fill="#A93E43"/>
<path fill-rule="evenodd" clip-rule="evenodd" d="M50.0975 6.83718L50.0139 10.1642C49.9932 10.9873 49.32 11.6437 48.4967 11.6437V12.8007C48.4967 12.8007 49.4225 14.4365 48.2977 14.8975C47.1729 15.3584 45.5571 13.1632 45.5571 13.1632L46.5409 7.32538L48.2977 6.16431L50.0975 6.83718Z" fill="#A93E43"/>
<path d="M46.9925 7.84705C46.9925 7.84705 46.7505 8.03514 46.9925 8.26284" stroke="#1C1F26" stroke-width="1.51" stroke-linecap="round"/>
<path fill-rule="evenodd" clip-rule="evenodd" d="M49.4664 9.92661L48.7627 9.79285C48.7627 9.79285 48.8746 10.2419 49.1211 10.2376C49.3677 10.2333 49.4664 9.92661 49.4664 9.92661Z" fill="white"/>
<path d="M49.654 8.28211C49.6514 8.25456 49.6716 8.23012 49.6992 8.22752C49.7267 8.22492 49.7512 8.24515 49.7537 8.2727L49.8649 9.45156H49.4139C49.3862 9.45156 49.3638 9.42913 49.3638 9.40146C49.3638 9.37379 49.3862 9.35135 49.4139 9.35135H49.7548L49.654 8.28211Z" fill="#1C1F26"/>
<path fill-rule="evenodd" clip-rule="evenodd" d="M48.7851 7.65102C48.7875 7.58188 48.8455 7.52779 48.9147 7.53021L49.265 7.54244C49.3341 7.54486 49.3882 7.60286 49.3858 7.672C49.3834 7.74114 49.3254 7.79523 49.2563 7.79282L48.9059 7.78058C48.8368 7.77816 48.7827 7.72016 48.7851 7.65102Z" fill="#1C1F26"/>
<path fill-rule="evenodd" clip-rule="evenodd" d="M49.7363 7.70107C49.7387 7.63193 49.7967 7.57784 49.8658 7.58025L50.2162 7.59249C50.2853 7.59491 50.3394 7.65291 50.337 7.72205C50.3346 7.79119 50.2766 7.84528 50.2074 7.84287L49.8571 7.83063C49.7879 7.82821 49.7339 7.77021 49.7363 7.70107Z" fill="#1C1F26"/>
<ellipse cx="50.071" cy="8.11504" rx="0.139405" ry="0.138599" fill="#1C1F26"/>
<ellipse cx="49.031" cy="8.11504" rx="0.139405" ry="0.138599" fill="#1C1F26"/>
<ellipse cx="43.8108" cy="5.18448" rx="1.81226" ry="1.80179" fill="#1C1F26"/>
<path fill-rule="evenodd" clip-rule="evenodd" d="M46.0206 10.2433C46.0206 10.2433 46.3762 10.0646 46.7503 9.60425C47.1245 9.14394 46.9647 8.62319 46.9647 8.62319L46.7049 8.33484C46.5732 8.18867 46.5562 7.9722 46.6635 7.80728C46.7712 7.64179 46.977 7.56979 47.1644 7.63203L47.5671 7.7658C47.7272 7.81898 47.8981 7.8311 48.0602 7.78441C48.4829 7.66268 49.334 7.34687 49.7328 6.69779C49.8373 6.97435 50.07 7.06075 50.07 7.06075V7.8034C50.07 7.8034 50.8867 7.20705 50.8867 6.47162C50.8867 5.73619 49.9332 5.96206 49.9332 5.96206C49.9332 5.96206 50.1137 4.8886 49.3652 4.75057C48.694 4.62678 46.7407 4.65192 45.7917 5.53407C44.9057 6.35766 44.5146 7.18924 44.7961 8.36663C44.9438 8.98437 46.0206 10.2433 46.0206 10.2433Z" fill="#1C1F26"/>
<path fill-rule="evenodd" clip-rule="evenodd" d="M48.4966 11.6436H47.123L48.4966 12.2438V11.6436Z" fill="#1C1F26"/>
</g>
<path fill-rule="evenodd" clip-rule="evenodd" d="M28.029 70.1764C28.029 70.1764 19.9716 44.5088 19.0536 41.6555C18.1357 38.8022 15.6261 35.0588 14.4874 33.5555C13.6305 32.4242 12.7272 32.9924 13.5386 35.5358C13.8055 36.3723 14.6995 38.4971 15.2576 39.4243C12.693 38.9228 12.8347 40.5052 12.8347 40.5052C12.8347 40.5052 10.2046 40.2169 10.2046 41.6555C8.77224 41.5696 8.49368 42.9169 8.49368 43.5958C8.49368 44.2747 7.77737 47.2373 8.49368 47.2373C9.21 47.2373 9.85371 45.6214 9.85371 45.6214C9.85371 45.6214 11.5057 49.7699 13.5386 49.3385C13.722 52.0675 14.9049 62.2168 16.2283 73.1751C17.671 85.1208 32.8868 89.2207 40.1724 79.6446L28.029 70.1764Z" fill="#A93E43"/>
<path fill-rule="evenodd" clip-rule="evenodd" d="M28.0292 70.1763L30.4737 78.0488L32.353 74.5548L28.0292 70.1763Z" fill="#19243D"/>
<path d="M15.347 48.3237C15.362 48.4436 15.4709 48.5286 15.5902 48.5135C15.7096 48.4985 15.7942 48.3892 15.7793 48.2694C15.6127 46.9347 16.1576 45.8094 17.4368 44.8692L17.6101 44.7419L17.4857 44.5661C16.8636 43.6866 16.0468 43.344 15.0728 43.5617L15.0415 43.5687L15.0136 43.5844C13.5798 44.3922 12.4879 44.5623 11.7289 44.1299C11.5501 44.028 11.4492 43.938 11.4158 43.8679C11.3627 43.7567 11.5372 43.5568 12.0892 43.2213C12.4045 43.0297 14.1186 42.1099 14.5819 41.8455C16.1618 40.9441 17.5998 40.9441 18.9322 41.8373C19.0323 41.9043 19.1675 41.8773 19.2343 41.7768C19.3011 41.6764 19.2742 41.5406 19.1741 41.4735C17.6994 40.485 16.0849 40.485 14.3667 41.4653C13.9126 41.7244 12.1909 42.6482 11.8635 42.8472C11.1197 43.2993 10.8235 43.6387 11.0228 44.0568C11.1023 44.2234 11.2648 44.3684 11.5139 44.5103C12.4275 45.0308 13.6585 44.8431 15.198 43.982C15.9183 43.8306 16.5105 44.0478 17.0027 44.6508C15.7265 45.6567 15.1679 46.8881 15.347 48.3237Z" fill="white"/>
<path d="M13.9035 46.5081C14.3829 46.3955 14.7477 46.0043 14.828 45.5166L15.0683 44.0581C15.088 43.939 15.0077 43.8264 14.889 43.8067C14.7703 43.787 14.6582 43.8676 14.6386 43.9867L14.3982 45.4452C14.3466 45.7585 14.1123 46.0099 13.8043 46.0823C13.5585 46.14 13.3118 45.9898 13.2493 45.7442L12.9461 44.5541C12.8858 44.317 12.5423 44.3433 12.5184 44.5868L12.3788 46.0068C12.349 46.3099 12.1208 46.5555 11.8217 46.6062C11.5588 46.6508 11.3069 46.4819 11.2473 46.221L10.1814 41.5582C10.1545 41.4405 10.0376 41.367 9.92037 41.394C9.80312 41.421 9.72989 41.5384 9.7568 41.6561L10.8227 46.3188C10.9339 46.8055 11.4039 47.1207 11.8943 47.0375C12.3872 46.9538 12.7633 46.5492 12.8123 46.0498L12.8305 45.8651C12.9569 46.3339 13.431 46.6192 13.9035 46.5081Z" fill="white"/>
<path d="M12.5426 42.3645C12.5519 42.4849 12.6567 42.5749 12.7767 42.5655C12.8966 42.5561 12.9862 42.4509 12.9769 42.3305L12.8336 40.488C12.8242 40.3676 12.7194 40.2776 12.5994 40.2871C12.4795 40.2965 12.3899 40.4017 12.3992 40.5221L12.5426 42.3645Z" fill="white"/>
<path d="M15.2128 40.1918C15.2556 40.3047 15.3814 40.3614 15.4939 40.3184C15.6063 40.2755 15.6628 40.1491 15.62 40.0363L15.3225 39.2513C15.2797 39.1384 15.1539 39.0818 15.0415 39.1247C14.9291 39.1677 14.8726 39.294 14.9154 39.4069L15.2128 40.1918Z" fill="white"/>
<path fill-rule="evenodd" clip-rule="evenodd" d="M75.328 52.0864C75.328 52.0864 89.6245 53.3152 94.9564 57.4024C100.288 61.4896 104.208 84.8607 104.208 84.8607L89.7683 86.0474L88.561 99.3153C88.2338 102.912 86.6451 106.277 84.076 108.816L49.3212 108.162C47.4545 105.018 46.4694 101.429 46.4694 97.7717V73.2292L38.9367 81.3707L28.0283 70.1766L30.3924 67.6834C39.834 57.7259 52.953 52.0864 66.6751 52.0864H75.328Z" fill="#85B0FF"/>
<path d="M89.5568 86.0987C89.585 86.2161 89.7027 86.2882 89.8197 86.2599C89.9366 86.2315 90.0084 86.1133 89.9802 85.9959L86.0017 69.4769C85.9735 69.3595 85.8558 69.2874 85.7388 69.3157C85.6219 69.3441 85.55 69.4623 85.5783 69.5797L89.5568 86.0987Z" fill="white"/>
<rect width="18.2962" height="24.9297" transform="matrix(-1 0 0 1 63.4785 64.4907)" fill="#85B0FF"/>
<rect width="18.2962" height="24.9297" transform="matrix(-1 0 0 1 62.3906 64.4907)" fill="#19243D"/>
<ellipse rx="1.19797" ry="1.20275" transform="matrix(-1 0 0 1 53.1331 68.9735)" fill="white"/>
<path fill-rule="evenodd" clip-rule="evenodd" d="M90.5544 85.8767L91.2185 89.2617L66.9089 79.818L63.4574 75.8885V77.7877L56.4163 73.3704C56.0654 73.1503 55.6023 73.261 55.3888 73.6158C55.2064 73.9189 55.2641 74.3087 55.5263 74.5461L59.8944 78.4995L53.6947 76.5277C53.2679 76.392 52.8064 76.5917 52.6133 76.9957C52.4029 77.4359 52.5828 77.9635 53.0183 78.1835L58.5255 80.965L53.3528 79.9591C52.8961 79.8703 52.4541 80.1694 52.3668 80.6264C52.2904 81.0266 52.512 81.424 52.8927 81.5693L58.2171 83.6017L54.1452 83.2488C53.6957 83.2098 53.3093 83.5642 53.3093 84.0153C53.3093 84.3677 53.5486 84.6751 53.8903 84.7614L61.1939 86.6063C62.4035 86.9118 63.658 86.9981 64.898 86.8611L65.2069 86.827L88.1793 103.842C91.1462 106.039 95.0819 106.425 98.4189 104.845C102.393 102.963 104.674 98.7078 104.04 94.3562L102.674 84.9781L90.5544 85.8767Z" fill="#A93E43"/>
<path fill-rule="evenodd" clip-rule="evenodd" d="M57.6091 30.5241L57.8999 42.2232C57.9708 45.0723 60.3008 47.3451 63.1508 47.3451V51.3942L62.5433 61.8665L73.3271 52.6628L71.8045 32.2776L63.8397 28.1693L57.6091 30.5241Z" fill="#A93E43"/>
<path d="M63.124 54.2512C63.0456 54.1956 62.9375 54.2147 62.8825 54.294C62.8275 54.3733 62.8464 54.4826 62.9248 54.5383L64.1518 55.4088C64.2302 55.4644 64.3383 55.4453 64.3933 55.366C64.4483 55.2867 64.4294 55.1774 64.351 55.1217L63.124 54.2512Z" fill="#19243D"/>
<path d="M69.2134 55.7751C69.3085 55.7612 69.3961 55.8274 69.4092 55.923C69.4222 56.0186 69.3557 56.1074 69.2605 56.1214L67.7721 56.34C67.677 56.354 67.5893 56.2878 67.5763 56.1922C67.5633 56.0966 67.6298 56.0078 67.725 55.9938L69.2134 55.7751Z" fill="#19243D"/>
<path fill-rule="evenodd" clip-rule="evenodd" d="M58.6199 34.612C58.7153 34.6211 58.7853 34.7066 58.7763 34.803L58.4191 38.6334L58.9639 39.0064C59.0431 39.0607 59.0639 39.1698 59.0102 39.2499C58.9565 39.3301 58.8487 39.3511 58.7694 39.2968L58.0546 38.8073L58.431 34.7701C58.44 34.6737 58.5246 34.6029 58.6199 34.612ZM58.4094 38.7367L58.334 38.575L58.4191 38.6333L58.4094 38.7367Z" fill="#19243D"/>
<path fill-rule="evenodd" clip-rule="evenodd" d="M62.0412 33.3722C62.0328 33.1301 61.8297 32.9407 61.5876 32.9493L60.3842 32.9918C60.1424 33.0003 59.9532 33.2032 59.9616 33.445C59.9699 33.6871 60.1731 33.8765 60.4152 33.8679L61.6185 33.8254C61.8604 33.8169 62.0495 33.6141 62.0412 33.3722Z" fill="#19243D"/>
<path fill-rule="evenodd" clip-rule="evenodd" d="M58.7463 33.5476C58.7379 33.3056 58.5348 33.1161 58.2927 33.1247L57.0893 33.1672C56.8475 33.1757 56.6583 33.3786 56.6667 33.6204C56.675 33.8625 56.8781 34.0519 57.1202 34.0434L58.3236 34.0009C58.5654 33.9923 58.7546 33.7895 58.7463 33.5476Z" fill="#19243D"/>
<path d="M67.9756 34.3412C67.8858 34.3077 67.7861 34.3541 67.7529 34.4449C67.7197 34.5358 67.7656 34.6366 67.8554 34.6702C68.2397 34.8138 68.2956 35.1547 67.9846 35.8008C67.9427 35.8879 67.9785 35.9928 68.0646 36.0352C68.1507 36.0776 68.2545 36.0414 68.2964 35.9543C68.686 35.1451 68.5919 34.5715 67.9756 34.3412Z" fill="#19243D"/>
<ellipse rx="0.346808" ry="0.350697" transform="matrix(-1 0 0 1 57.7211 34.8627)" fill="#19243D"/>
<ellipse rx="0.346808" ry="0.350697" transform="matrix(-1 0 0 1 60.6678 34.8627)" fill="#19243D"/>
<path fill-rule="evenodd" clip-rule="evenodd" d="M72.5201 42.5497C72.5201 42.5497 70.886 42.0945 70.1321 41.0226C69.3782 39.9507 68.4593 36.7758 68.4593 36.7758L69.3881 35.7339C69.8278 35.2406 69.8846 34.5147 69.5269 33.9591C69.1451 33.3661 68.3962 33.1276 67.7418 33.3906L67.5253 33.4776C67.108 33.6453 66.8067 34.0163 66.7281 34.4591L66.4427 36.067C66.3955 36.3334 66.1639 36.5275 65.8933 36.5275C65.599 36.5275 65.3549 36.2998 65.3293 36.0067C65.249 35.0899 65.0482 33.2545 64.7072 32.9375C64.2491 32.5117 63.1267 32.8324 62.9068 29.9334C61.3855 30.9206 57.6095 30.5243 57.6095 30.5243L57.7094 33.9069C57.7094 33.9069 57.2501 31.7992 57.2501 29.2255C57.2501 26.6518 59.8592 23.816 63.6376 23.816C67.416 23.816 71.0039 23.816 73.3275 28.1695C75.6512 32.5229 72.5201 42.5497 72.5201 42.5497Z" fill="#19243D"/>
<path fill-rule="evenodd" clip-rule="evenodd" d="M65.3021 35.7455C65.3021 35.7455 65.3021 37.3825 65.3021 38.1869C65.3021 38.9914 63.2719 38.8418 63.0289 40.7552C62.7859 42.6686 62.3107 43.1146 61.0993 43.2513C59.8879 43.3881 58.056 43.5099 57.887 42.4385C57.887 42.4385 56.6108 46.6053 59.2457 47.345C61.8807 48.0847 64.9319 47.9298 66.852 45.2396C68.7721 42.5495 66.4687 38.6002 66.4687 35.7455C66.4687 32.8909 65.3021 35.7455 65.3021 35.7455Z" fill="#19243D"/>
<path fill-rule="evenodd" clip-rule="evenodd" d="M61.709 39.4651C61.709 39.4651 61.4316 40.3922 60.4473 40.2868C59.463 40.1814 58.796 39.6288 58.796 39.6288C58.796 39.6288 58.2513 40.2868 57.7802 40.2868C57.3091 40.2868 57.2491 39.6288 57.2491 39.6288C57.2491 39.6288 57.8622 38.3986 58.676 38.9266C59.8514 38.3281 61.709 39.4651 61.709 39.4651Z" fill="#19243D"/>
<path d="M13.5757 109.123V108.445H153.005V109.123H13.5757Z" fill="#19243D"/>
</svg>
