<svg width="190" height="60" viewBox="0 0 190 60" fill="none" xmlns="http://www.w3.org/2000/svg">
<rect width="189.217" height="59.8081" rx="4" fill="#006A3E"/>
<path fill-rule="evenodd" clip-rule="evenodd" d="M16.2598 30.2456V14.546C16.2598 13.6488 16.9989 12.9012 17.738 12.9012C18.4772 12.9012 18.7728 13.0508 19.2163 13.3498L47.7466 29.199C48.3379 29.498 48.6336 29.9466 48.6336 30.3952C48.6336 30.8437 48.3379 31.2923 47.7466 31.5913L19.2163 47.291C18.9206 47.4405 18.4772 47.7395 17.738 47.7395C16.9989 47.7395 16.2598 46.9919 16.2598 46.0948V30.2456Z" fill="url(#paint0_linear)"/>
<path fill-rule="evenodd" clip-rule="evenodd" d="M34.7399 30.8511L17.4443 13.3572C17.5922 13.3572 17.5922 13.3572 17.74 13.3572C18.4791 13.3572 18.7748 13.5067 19.2182 13.8057L40.2094 25.3189L34.7399 30.8511Z" fill="url(#paint1_linear)"/>
<path fill-rule="evenodd" clip-rule="evenodd" d="M40.0581 36.0842L34.7363 30.7015L40.2059 25.3187L47.745 29.5053C48.3363 29.8043 48.632 30.2529 48.632 30.7015C48.632 31.15 48.3363 31.5986 47.745 31.8976L40.0581 36.0842Z" fill="url(#paint2_linear)"/>
<path fill-rule="evenodd" clip-rule="evenodd" d="M17.5962 48.0464L34.744 30.702L40.0657 36.0848L19.2223 47.7474C18.7788 47.8969 18.4831 48.0464 17.5962 48.0464C17.744 48.0464 17.744 48.0464 17.5962 48.0464Z" fill="url(#paint3_linear)"/>
<path fill-rule="evenodd" clip-rule="evenodd" d="M106.873 42.2041C106.134 41.606 105.542 40.5594 105.247 39.9613L107.612 38.9147C107.76 39.2137 108.055 39.6623 108.351 40.1108C108.942 40.7089 109.829 41.307 110.716 41.307C111.603 41.307 112.638 40.8584 113.229 40.1108C113.673 39.3632 113.968 38.6156 113.968 37.569V36.6719C112.194 38.9147 108.499 38.6156 106.429 36.2233C104.212 33.831 104.212 29.794 106.429 27.4016C108.647 25.1588 111.899 24.8598 113.821 26.9531V25.9064H116.334V37.27C116.334 40.1108 115.299 41.7556 113.968 42.8022C113.081 43.5498 111.751 43.8488 110.568 43.8488C109.238 43.5498 107.907 43.1012 106.873 42.2041ZM168.812 42.8022L171.325 36.8214L166.89 26.5045H169.403L172.507 33.831L175.612 26.5045H178.125L171.325 42.8022H168.812ZM156.838 37.1204C156.099 36.3728 155.803 35.3262 155.803 34.2796C155.803 33.3824 156.099 32.4853 156.69 31.8872C157.725 30.8406 159.203 30.392 160.829 30.392C161.864 30.392 162.751 30.5416 163.49 30.9901C163.49 29.1959 162.012 28.4483 160.829 28.4483C159.794 28.4483 158.759 29.0463 158.316 30.093L156.099 29.1959C156.542 28.1492 157.725 26.2055 160.681 26.2055C162.159 26.2055 163.638 26.654 164.525 27.7007C165.412 28.7473 165.707 29.9435 165.707 31.5882V37.868H163.194V36.8214C162.899 37.27 162.307 37.569 161.864 37.868C161.272 38.1671 160.533 38.3166 159.794 38.3166C158.907 38.1671 157.577 37.868 156.838 37.1204ZM78.0468 31.7377C78.0468 28.7473 80.2641 25.4579 84.2554 25.4579C88.0989 25.4579 90.4641 28.7473 90.4641 31.7377C90.4641 34.7281 88.2467 38.0176 84.2554 38.0176C80.2641 38.0176 78.0468 34.7281 78.0468 31.7377ZM91.351 31.7377C91.351 28.7473 93.5684 25.4579 97.5597 25.4579C101.403 25.4579 103.768 28.7473 103.768 31.7377C103.768 34.7281 101.551 38.0176 97.5597 38.0176C93.7163 38.0176 91.351 34.7281 91.351 31.7377ZM61.3425 35.0272C57.6468 31.2892 57.7947 25.1588 61.4903 21.2713C63.412 19.3275 65.7772 18.4304 68.2903 18.4304C70.6555 18.4304 73.0207 19.3275 74.7946 21.1218L73.0207 23.0655C70.3598 20.3742 66.0729 20.5237 63.5599 23.2151C60.899 26.0559 60.899 30.392 63.5599 33.2329C66.2207 36.0738 70.6555 36.2233 73.3163 33.3824C74.2033 32.4853 74.4989 31.2892 74.6468 30.093H68.2903V27.4016H77.012C77.1598 27.9997 77.1598 28.7473 77.1598 29.4949C77.1598 31.7377 76.2729 33.9805 74.7946 35.4757C73.1685 37.1204 70.8033 38.0176 68.4381 38.0176C65.9251 37.868 63.2642 36.9709 61.3425 35.0272ZM123.873 36.0738C121.655 33.6815 121.655 29.6444 123.873 27.1026C126.09 24.7103 129.786 24.7103 131.855 27.1026C132.594 27.8502 133.038 28.8968 133.481 29.9435L125.351 33.3824C125.794 34.4291 126.829 35.3262 128.307 35.3262C129.638 35.3262 130.525 34.8776 131.412 33.532L133.629 35.0272C133.333 35.3262 133.038 35.6252 132.89 35.9243C130.377 38.4661 126.09 38.4661 123.873 36.0738ZM139.246 37.868V21.2713H144.568C147.673 21.2713 150.186 23.5141 150.186 26.2055C150.186 28.8968 147.968 31.1396 145.16 31.1396H141.907V37.868H139.246ZM151.664 37.868V21.2713H154.177V37.868H151.664ZM118.255 37.569V19.0285H120.916V37.569H118.255ZM163.342 32.9339C162.751 32.4853 161.864 32.3358 160.977 32.3358C159.203 32.3358 158.168 33.2329 158.168 34.2796C158.168 35.3262 159.203 35.9243 160.238 35.9243C161.716 35.9243 163.342 34.7281 163.342 32.9339ZM87.6554 31.7377C87.6554 29.9435 86.4728 27.9997 84.2554 27.9997C82.038 27.9997 80.8554 29.9435 80.8554 31.7377C80.8554 33.532 82.038 35.4757 84.2554 35.4757C86.325 35.4757 87.6554 33.532 87.6554 31.7377ZM100.96 31.7377C100.96 29.9435 99.7771 27.9997 97.5597 27.9997C95.3423 27.9997 94.1597 29.9435 94.1597 31.7377C94.1597 33.532 95.3423 35.4757 97.5597 35.4757C99.7771 35.4757 100.96 33.532 100.96 31.7377ZM114.116 32.7844C114.116 32.6348 114.116 32.4853 114.264 32.3358C114.264 32.1863 114.264 31.8872 114.264 31.7377C114.264 31.5882 114.264 31.2892 114.264 31.1396V30.9901C114.264 30.8406 114.116 30.5416 114.116 30.392C113.673 28.8968 112.342 27.8502 111.012 27.8502C109.238 27.8502 107.76 29.6444 107.76 31.5882C107.76 33.6815 109.238 35.3262 111.16 35.3262C112.342 35.4757 113.525 34.4291 114.116 32.7844ZM124.907 31.4387L130.377 29.0464C129.786 27.9997 128.899 27.7007 128.16 27.7007C125.942 27.8502 124.612 30.2425 124.907 31.4387ZM147.525 26.355C147.525 24.8598 146.342 23.8131 144.716 23.8131H141.76V29.0464H144.864C146.342 29.0464 147.525 27.8502 147.525 26.355Z" fill="white"/>
<defs>
<linearGradient id="paint0_linear" x1="25.8202" y1="10.7685" x2="34.2758" y2="45.1003" gradientUnits="userSpaceOnUse">
<stop stop-color="#006884"/>
<stop offset="1" stop-color="#8AD1D0"/>
</linearGradient>
<linearGradient id="paint1_linear" x1="15.7306" y1="16.114" x2="38.3984" y2="28.2294" gradientUnits="userSpaceOnUse">
<stop stop-color="#24BBB6"/>
<stop offset="1" stop-color="#DBE692"/>
</linearGradient>
<linearGradient id="paint2_linear" x1="41.6759" y1="36.7123" x2="41.6759" y2="24.8278" gradientUnits="userSpaceOnUse">
<stop stop-color="#FCC072"/>
<stop offset="1" stop-color="#F58A5B"/>
</linearGradient>
<linearGradient id="paint3_linear" x1="20.1014" y1="51.1403" x2="38.1236" y2="33.0066" gradientUnits="userSpaceOnUse">
<stop stop-color="#712B8F"/>
<stop offset="1" stop-color="#EA1D27"/>
</linearGradient>
</defs>
</svg>
