<svg width="145" height="46" viewBox="0 0 145 46" fill="none" xmlns="http://www.w3.org/2000/svg">
<rect width="144.559" height="45.6928" rx="4" fill="#212B4B"/>
<path fill-rule="evenodd" clip-rule="evenodd" d="M12.4224 23.1074V11.1131C12.4224 10.4277 12.987 9.8565 13.5517 9.8565C14.1164 9.8565 14.3423 9.97073 14.6811 10.1992L36.478 22.3078C36.9298 22.5363 37.1556 22.879 37.1556 23.2217C37.1556 23.5644 36.9298 23.9071 36.478 24.1355L14.6811 36.1299C14.4552 36.2441 14.1164 36.4726 13.5517 36.4726C12.987 36.4726 12.4224 35.9014 12.4224 35.216V23.1074Z" fill="url(#paint0_linear)"/>
<path fill-rule="evenodd" clip-rule="evenodd" d="M26.5408 23.57L13.3271 10.2048C13.4401 10.2048 13.4401 10.2048 13.553 10.2048C14.1177 10.2048 14.3436 10.319 14.6824 10.5475L30.7194 19.3434L26.5408 23.57Z" fill="url(#paint1_linear)"/>
<path fill-rule="evenodd" clip-rule="evenodd" d="M30.6038 27.568L26.5381 23.4557L30.7168 19.3433L36.4766 22.5418C36.9283 22.7703 37.1542 23.113 37.1542 23.4557C37.1542 23.7984 36.9283 24.1411 36.4766 24.3695L30.6038 27.568Z" fill="url(#paint2_linear)"/>
<path fill-rule="evenodd" clip-rule="evenodd" d="M13.4434 36.707L26.5441 23.4561L30.6098 27.5684L14.6857 36.4785C14.3469 36.5927 14.121 36.707 13.4434 36.707C13.5563 36.707 13.5563 36.707 13.4434 36.707Z" fill="url(#paint3_linear)"/>
<path fill-rule="evenodd" clip-rule="evenodd" d="M81.6498 32.2436C81.0851 31.7867 80.6334 30.987 80.4075 30.5301L82.2145 29.7305C82.3274 29.9589 82.5533 30.3016 82.7792 30.6443C83.2309 31.1013 83.9085 31.5582 84.5862 31.5582C85.2638 31.5582 86.0544 31.2155 86.5061 30.6443C86.8449 30.0732 87.0708 29.502 87.0708 28.7024V28.017C85.7155 29.7305 82.8921 29.502 81.311 27.6743C79.6169 25.8466 79.6169 22.7623 81.311 20.9346C83.0051 19.2212 85.4897 18.9927 86.9579 20.5919V19.7923H88.8778V28.4739C88.8778 30.6443 88.0872 31.9009 87.0708 32.7005C86.3932 33.2717 85.3767 33.5001 84.4732 33.5001C83.4568 33.2717 82.4404 32.929 81.6498 32.2436ZM128.97 32.7005L130.89 28.1312L127.502 20.2492H129.422L131.794 25.8466L134.166 20.2492H136.086L130.89 32.7005H128.97ZM119.823 28.3597C119.258 27.7885 119.032 26.9889 119.032 26.1893C119.032 25.5039 119.258 24.8185 119.71 24.3616C120.5 23.562 121.63 23.2193 122.872 23.2193C123.662 23.2193 124.34 23.3335 124.905 23.6762C124.905 22.3054 123.775 21.7343 122.872 21.7343C122.081 21.7343 121.291 22.1912 120.952 22.9908L119.258 22.3054C119.597 21.5058 120.5 20.0208 122.759 20.0208C123.888 20.0208 125.018 20.3635 125.695 21.1631C126.373 21.9627 126.599 22.8766 126.599 24.1331V28.9309H124.679V28.1312C124.453 28.4739 124.001 28.7024 123.662 28.9309C123.211 29.1593 122.646 29.2736 122.081 29.2736C121.404 29.1593 120.387 28.9309 119.823 28.3597ZM59.6271 24.2474C59.6271 21.9627 61.3211 19.4496 64.3704 19.4496C67.3068 19.4496 69.1138 21.9627 69.1138 24.2474C69.1138 26.532 67.4197 29.0451 64.3704 29.0451C61.3211 29.0451 59.6271 26.532 59.6271 24.2474ZM69.7914 24.2474C69.7914 21.9627 71.4855 19.4496 74.5348 19.4496C77.4711 19.4496 79.2781 21.9627 79.2781 24.2474C79.2781 26.532 77.5841 29.0451 74.5348 29.0451C71.5984 29.0451 69.7914 26.532 69.7914 24.2474ZM46.8652 26.7605C44.0417 23.9047 44.1547 19.2212 46.9781 16.2511C48.4463 14.7661 50.2533 14.0807 52.1732 14.0807C53.9802 14.0807 55.7872 14.7661 57.1425 16.1369L55.7872 17.6219C53.7543 15.5657 50.4792 15.68 48.5592 17.7361C46.5264 19.9065 46.5264 23.2193 48.5592 25.3897C50.5921 27.5601 53.9802 27.6743 56.0131 25.5039C56.6907 24.8185 56.9166 23.9047 57.0295 22.9908H52.1732V20.9346H58.8365C58.9494 21.3916 58.9494 21.9627 58.9494 22.5339C58.9494 24.2474 58.2718 25.9608 57.1425 27.1031C55.9001 28.3597 54.0931 29.0451 52.2862 29.0451C50.3662 28.9309 48.3334 28.2455 46.8652 26.7605ZM94.6376 27.5601C92.9435 25.7324 92.9435 22.6481 94.6376 20.7062C96.3316 18.8785 99.1551 18.8785 100.736 20.7062C101.301 21.2773 101.64 22.0769 101.978 22.8766L95.7669 25.5039C96.1058 26.3035 96.8963 26.9889 98.0257 26.9889C99.0421 26.9889 99.7197 26.6462 100.397 25.6181L102.091 26.7605C101.866 26.9889 101.64 27.2174 101.527 27.4458C99.6068 29.3878 96.3316 29.3878 94.6376 27.5601ZM106.383 28.9309V16.2511H110.449C112.82 16.2511 114.74 17.9646 114.74 20.0208C114.74 22.0769 113.046 23.7904 110.901 23.7904H108.416V28.9309H106.383ZM115.87 28.9309V16.2511H117.79V28.9309H115.87ZM90.346 28.7024V14.5376H92.3788V28.7024H90.346ZM124.792 25.1612C124.34 24.8185 123.662 24.7043 122.985 24.7043C121.63 24.7043 120.839 25.3897 120.839 26.1893C120.839 26.9889 121.63 27.4458 122.42 27.4458C123.549 27.4458 124.792 26.532 124.792 25.1612ZM66.968 24.2474C66.968 22.8766 66.0645 21.3916 64.3704 21.3916C62.6764 21.3916 61.7729 22.8766 61.7729 24.2474C61.7729 25.6181 62.6764 27.1031 64.3704 27.1031C65.9515 27.1031 66.968 25.6181 66.968 24.2474ZM77.1323 24.2474C77.1323 22.8766 76.2288 21.3916 74.5348 21.3916C72.8407 21.3916 71.9372 22.8766 71.9372 24.2474C71.9372 25.6181 72.8407 27.1031 74.5348 27.1031C76.2288 27.1031 77.1323 25.6181 77.1323 24.2474ZM87.1837 25.047C87.1837 24.9327 87.1837 24.8185 87.2967 24.7043C87.2967 24.59 87.2967 24.3616 87.2967 24.2474C87.2967 24.1331 87.2967 23.9047 87.2967 23.7904V23.6762C87.2967 23.562 87.1837 23.3335 87.1837 23.2193C86.8449 22.0769 85.8285 21.2773 84.812 21.2773C83.4568 21.2773 82.3274 22.6481 82.3274 24.1331C82.3274 25.7324 83.4568 26.9889 84.925 26.9889C85.8285 27.1031 86.732 26.3035 87.1837 25.047ZM95.4281 24.0189L99.6068 22.1912C99.1551 21.3916 98.4774 21.1631 97.9128 21.1631C96.2187 21.2773 95.2023 23.105 95.4281 24.0189ZM112.708 20.135C112.708 18.9927 111.804 18.1931 110.562 18.1931H108.303V22.1912H110.675C111.804 22.1912 112.708 21.2773 112.708 20.135Z" fill="white"/>
<defs>
<linearGradient id="paint0_linear" x1="19.7265" y1="8.22709" x2="26.1864" y2="34.4562" gradientUnits="userSpaceOnUse">
<stop stop-color="#006884"/>
<stop offset="1" stop-color="#8AD1D0"/>
</linearGradient>
<linearGradient id="paint1_linear" x1="12.0179" y1="12.311" x2="29.3359" y2="21.567" gradientUnits="userSpaceOnUse">
<stop stop-color="#24BBB6"/>
<stop offset="1" stop-color="#DBE692"/>
</linearGradient>
<linearGradient id="paint2_linear" x1="31.8398" y1="28.0479" x2="31.8398" y2="18.9683" gradientUnits="userSpaceOnUse">
<stop stop-color="#FCC072"/>
<stop offset="1" stop-color="#F58A5B"/>
</linearGradient>
<linearGradient id="paint3_linear" x1="15.3573" y1="39.0707" x2="29.1261" y2="25.2167" gradientUnits="userSpaceOnUse">
<stop stop-color="#712B8F"/>
<stop offset="1" stop-color="#EA1D27"/>
</linearGradient>
</defs>
</svg>
