<svg width="14" height="14" viewBox="0 0 14 14" fill="none" xmlns="http://www.w3.org/2000/svg">
<path d="M3.95361 0.541748C1.86498 0.541748 0.166016 2.24228 0.166016 4.33145V9.7438C0.166016 11.8324 1.86655 13.5314 3.95572 13.5314H9.36807C11.4567 13.5314 13.1557 11.8309 13.1557 9.74169V4.32934C13.1557 2.24071 11.4551 0.541748 9.36596 0.541748H3.95361ZM10.4495 2.70669C10.7482 2.70669 10.9907 2.94916 10.9907 3.24792C10.9907 3.54669 10.7482 3.78916 10.4495 3.78916C10.1507 3.78916 9.90825 3.54669 9.90825 3.24792C9.90825 2.94916 10.1507 2.70669 10.4495 2.70669ZM6.66084 3.78916C8.45179 3.78916 9.90825 5.24562 9.90825 7.03657C9.90825 8.82752 8.45179 10.284 6.66084 10.284C4.86989 10.284 3.41343 8.82752 3.41343 7.03657C3.41343 5.24562 4.86989 3.78916 6.66084 3.78916ZM6.66084 4.87163C6.08666 4.87163 5.536 5.09972 5.12999 5.50573C4.72399 5.91173 4.4959 6.46239 4.4959 7.03657C4.4959 7.61075 4.72399 8.16141 5.12999 8.56742C5.536 8.97342 6.08666 9.20151 6.66084 9.20151C7.23502 9.20151 7.78568 8.97342 8.19168 8.56742C8.59769 8.16141 8.82578 7.61075 8.82578 7.03657C8.82578 6.46239 8.59769 5.91173 8.19168 5.50573C7.78568 5.09972 7.23502 4.87163 6.66084 4.87163Z" fill="#00D57C"/>
</svg>
