<svg width="14" height="14" viewBox="0 0 14 14" fill="none" xmlns="http://www.w3.org/2000/svg">
<path d="M0.0166016 0.27124V13.8021H13.5475V0.27124H0.0166016ZM4.55918 11.019H2.97161V5.47702H4.55912V11.019H4.55918ZM3.78106 4.84504C3.24856 4.84504 2.81537 4.44336 2.81537 3.94967C2.81537 3.45597 3.24862 3.05429 3.78106 3.05429C4.31351 3.05429 4.74675 3.45597 4.74675 3.94967C4.74675 4.44336 4.31351 4.84504 3.78106 4.84504ZM10.7487 11.019H9.12211V7.73225C9.12245 7.72556 9.1462 7.20376 8.85034 6.89207C8.70308 6.73689 8.50023 6.65822 8.24736 6.65822C7.61126 6.65822 7.28998 7.11622 7.15382 7.39362V11.019H5.56625V5.47702H7.15376V5.94523C7.67344 5.52363 8.25707 5.30121 8.84521 5.30121C10.3509 5.30121 10.7487 6.47734 10.7487 7.09922V11.019Z" fill="#00D57C"/>
</svg>
