<svg width="191" height="108" viewBox="0 0 191 108" fill="none" xmlns="http://www.w3.org/2000/svg">
<g id="Scene 4">
<g id="Path 139">
<rect id="Mask" x="84.7974" y="47.134" width="60.7995" height="60.7995" rx="30.3998" fill="#B6F3D9"/>
<mask id="mask0" mask-type="alpha" maskUnits="userSpaceOnUse" x="84" y="47" width="62" height="61">
<rect id="Mask_2" x="84.7974" y="47.134" width="60.7995" height="60.7995" rx="30.3998" fill="white"/>
</mask>
<g mask="url(#mask0)">
<path id="Path 140" d="M81.9629 94.4373C88.7207 92.7825 101.864 84.6981 101.642 97.284C101.419 109.87 117.459 93.57 149.417 94.4373" stroke="white" stroke-width="18"/>
<path id="Path 139_2" d="M82.0566 71.2492C82.0566 71.2492 109.58 36.3582 110.936 48.0391C112.291 59.7201 82.2446 83.1766 105.708 75.9018C129.171 68.627 136.85 52.2952 141.82 62.4495C146.789 72.6038 114.22 89.6027 148.432 85.2405" stroke="white" stroke-width="18"/>
<ellipse id="Oval" cx="117.214" cy="84.364" rx="4.25984" ry="5.42161" transform="rotate(46 117.214 84.364)" stroke="white" stroke-width="18"/>
</g>
</g>
<g id="Chat Baloon 2">
<path id="Rectangle" fill-rule="evenodd" clip-rule="evenodd" d="M125.733 16.7497C125.733 11.2269 121.256 6.74976 115.733 6.74976H74.1792C67.5518 6.74976 62.1792 12.1223 62.1792 18.7498V20.603C62.1792 27.2304 67.5518 32.603 74.1792 32.603H75.8002L83.3156 37.3161V32.603H115.733C121.256 32.603 125.733 28.1259 125.733 22.603V16.7497Z" fill="#C7DBFF"/>
<g id="Group 9">
<path id="Rectangle_2" fill-rule="evenodd" clip-rule="evenodd" d="M123.008 9C123.008 4.58173 119.427 1 115.008 1H67.4546C63.0363 1 59.4546 4.58172 59.4546 9V18.7991C59.4546 23.2174 63.0363 26.7991 67.4546 26.7991H73.0756L80.591 31.5023V26.7991H115.008C119.427 26.7991 123.008 23.2174 123.008 18.7991V9Z" fill="white" stroke="#19243D" stroke-linecap="round"/>
<path id="Path 101" d="M104.083 8.09008L66.663 8.21085" stroke="#19243D"/>
<path id="Path 101_2" d="M92.7847 10.8946L66.6626 11.0154" stroke="#19243D"/>
<path id="Path 101_3" d="M98.4365 13.6992L66.6652 13.82" stroke="#19243D"/>
<path id="Path 101_4" d="M78.6641 16.5029L66.6651 16.6237" stroke="#19243D"/>
<path id="Path 101_5" d="M87.1372 19.3071L66.6644 19.4279" stroke="#19243D"/>
</g>
</g>
<g id="Plant - 4">
<ellipse id="Oval_2" cx="158.67" cy="83.844" rx="5.20031" ry="6.03237" fill="#00D57C"/>
<g id="Group 13">
<ellipse id="Oval_3" cx="150.972" cy="65.9446" rx="8.24456" ry="10.0661" transform="rotate(-13 150.972 65.9446)" fill="#40C5C4"/>
<path id="Path 108" d="M148.722 56.1333L157.929 88.8659" stroke="#19243D"/>
<path id="Path 109" d="M152.642 70.2909L158.125 61.6426" stroke="#19243D"/>
<path id="Path 110" d="M151.487 65.9445L142.797 64.1676" stroke="#19243D"/>
</g>
<g id="Group 13_2">
<ellipse id="Oval_4" rx="8.24341" ry="10.0401" transform="matrix(-0.97437 -0.224951 -0.224951 0.97437 164.701 72.984)" fill="#E5E9F3"/>
<path id="Path 108_2" d="M166.952 63.2L160.293 86.8082" stroke="#19243D"/>
<path id="Path 109_2" d="M163.032 77.3185L157.548 68.6937" stroke="#19243D"/>
<path id="Path 110_2" d="M164.187 72.984L172.877 71.2119" stroke="#19243D"/>
</g>
<path id="Path 39" fill-rule="evenodd" clip-rule="evenodd" d="M155.897 96.1169H162.472L164.699 86.1323H153.883L155.897 96.1169Z" fill="#19243D"/>
</g>
<g id="Woman 3 + Man 7 Mask">
<mask id="mask1" mask-type="alpha" maskUnits="userSpaceOnUse" x="0" y="12" width="191" height="85">
<path id="Mask_3" fill-rule="evenodd" clip-rule="evenodd" d="M0 12.3708H191V96.3081H0V12.3708Z" fill="white"/>
</mask>
<g mask="url(#mask1)">
<g id="Man 7">
<g id="Man - Top 7">
<g id="man - body 2">
<path id="Path 56" fill-rule="evenodd" clip-rule="evenodd" d="M92.0562 79.0435L88.5187 86.107C86.7473 89.6441 83.1305 91.8778 79.1746 91.8778C75.9079 91.8778 72.8291 90.3502 70.853 87.7489L55.9229 68.0948L61.3326 65.2277L79.106 79.0435L81.0335 73.341L92.0562 79.0435Z" fill="#FE9C9A"/>
<path id="Path 14" fill-rule="evenodd" clip-rule="evenodd" d="M123.357 46.2893C136.807 47.572 145.151 61.5376 139.905 73.9898L137.552 79.5757L136.538 87.8246C136.104 91.3531 134.489 94.6312 131.957 97.1262H97.9724C96.0189 93.6267 95.0585 89.66 95.195 85.6545L95.64 72.5937L91.9178 80.6475L80.2258 74.9053C84.7746 57.9939 100.121 46.2505 117.633 46.2798L123.357 46.2893Z" fill="#00D57C"/>
<g id="Group 22">
<path id="Mask_4" fill-rule="evenodd" clip-rule="evenodd" d="M123.357 46.2893C136.807 47.572 145.151 61.5376 139.905 73.9898L137.552 79.5757L136.538 87.8246C136.104 91.3531 134.489 94.6312 131.957 97.1262H97.9724C96.0189 93.6267 95.0585 89.66 95.195 85.6545L95.64 72.5937L91.9178 80.6475L80.2258 74.9053C84.7746 57.9939 100.121 46.2505 117.633 46.2798L123.357 46.2893Z" fill="#00D57C"/>
<mask id="mask2" mask-type="alpha" maskUnits="userSpaceOnUse" x="80" y="46" width="62" height="52">
<path id="Mask_5" fill-rule="evenodd" clip-rule="evenodd" d="M123.357 46.2893C136.807 47.572 145.151 61.5376 139.905 73.9898L137.552 79.5757L136.538 87.8246C136.104 91.3531 134.489 94.6312 131.957 97.1262H97.9724C96.0189 93.6267 95.0585 89.66 95.195 85.6545L95.64 72.5937L91.9178 80.6475L80.2258 74.9053C84.7746 57.9939 100.121 46.2505 117.633 46.2798L123.357 46.2893Z" fill="white"/>
</mask>
<g mask="url(#mask2)">
<path id="Path 49" fill-rule="evenodd" clip-rule="evenodd" d="M121.254 94.0657C115.892 94.5277 110.671 92.19 107.445 87.8824L93.2658 68.9502L117.152 79.0442H134.552L136.851 80.5314L133.318 86.4887C130.755 90.8127 126.262 93.6342 121.254 94.0657Z" fill="#19243D"/>
<g id="Group 22_2">
<path id="Path 90" d="M125.2 44.9167C125.2 44.9167 122.568 78.8172 122.568 100.589" stroke="#006A3E"/>
<path id="Path 90_2" d="M129.482 44.9167C129.482 44.9167 126.85 78.8172 126.85 100.589" stroke="#006A3E"/>
<path id="Path 90_3" d="M133.765 44.9167C133.765 44.9167 131.132 78.8172 131.132 100.589" stroke="#006A3E"/>
<path id="Path 90_4" d="M138.047 44.9167C138.047 44.9167 135.415 78.8172 135.415 100.589" stroke="#006A3E"/>
<path id="Path 90_5" d="M142.329 44.9167C142.329 44.9167 139.696 78.8172 139.696 100.589" stroke="#006A3E"/>
<path id="Path 90_6" d="M120.916 44.9167C120.916 44.9167 118.283 78.8172 118.283 100.589" stroke="#006A3E"/>
<path id="Path 90_7" d="M116.631 44.9167C116.631 44.9167 113.999 78.8172 113.999 100.589" stroke="#006A3E"/>
<path id="Path 90_8" d="M112.349 44.9167C112.349 44.9167 109.717 78.8172 109.717 100.589" stroke="#006A3E"/>
<path id="Path 90_9" d="M108.067 44.9167C108.067 44.9167 105.435 78.8172 105.435 100.589" stroke="#006A3E"/>
<path id="Path 90_10" d="M103.785 44.9167C103.785 44.9167 101.153 78.8172 101.153 100.589" stroke="#006A3E"/>
<path id="Path 90_11" d="M99.5029 44.9167C99.5029 44.9167 96.8706 78.8172 96.8706 100.589" stroke="#006A3E"/>
<path id="Path 90_12" d="M95.2207 44.9167C95.2207 44.9167 92.5883 78.8172 92.5883 100.589" stroke="#006A3E"/>
<path id="Path 90_13" d="M90.9385 44.9167C90.9385 44.9167 88.3061 78.8172 88.3061 100.589" stroke="#006A3E"/>
<path id="Path 90_14" d="M86.6562 44.9167C86.6562 44.9167 84.0239 78.8172 84.0239 100.589" stroke="#006A3E"/>
</g>
</g>
</g>
<g id="Group 8">
<path id="Rectangle_3" fill-rule="evenodd" clip-rule="evenodd" d="M75.7351 51.8026H57.7486L60.1604 76.2371H78.147L75.7351 51.8026Z" fill="#85B0FF"/>
<path id="Rectangle_4" fill-rule="evenodd" clip-rule="evenodd" d="M74.6668 51.8026H56.6802L59.0921 76.2371H77.0786L74.6668 51.8026Z" fill="#19243D"/>
<ellipse id="Oval_5" rx="1.17769" ry="1.17886" transform="matrix(-1 0 0 1 65.563 56.1966)" fill="white"/>
</g>
<path id="Path 55" fill-rule="evenodd" clip-rule="evenodd" d="M59.5207 70.0742C59.5207 70.0742 56.6698 69.2885 55.9607 68.0947C55.3819 67.1202 56.2735 62.8807 56.6207 61.3553C56.6979 61.0161 56.9607 60.7533 57.2982 60.669L62.3446 59.4096C62.7001 59.3209 63.0601 59.5372 63.1486 59.8927C63.2269 60.2071 63.0681 60.5314 62.7711 60.661C61.5909 61.1761 58.8073 62.3968 59.1154 62.3199C59.4073 62.2471 62.1753 62.0126 63.5471 61.8994C63.9874 61.8631 64.3884 62.1516 64.4951 62.5802C64.6156 63.064 64.3213 63.5538 63.8376 63.6745L59.7094 64.7048L62.7682 65.2814C63.2653 65.3751 63.5722 65.8782 63.428 66.3631C63.331 66.6892 63.0496 66.9265 62.7118 66.967L58.4126 67.4827L61.688 68.7409C62.0497 68.8798 62.2446 69.2728 62.1363 69.6449C62.0393 69.9784 61.7248 70.2006 61.378 70.1807L59.5207 70.0742Z" fill="#FE9C9A"/>
<path id="Path 57" fill-rule="evenodd" clip-rule="evenodd" d="M134.549 79.044L123.522 71.7363L120.318 75.5959L92.307 61.4808C91.8397 61.2453 91.3491 61.0594 90.8431 60.9261L82.4169 58.7062C81.9204 58.5754 81.4346 58.9498 81.4346 59.4632C81.4346 59.7601 81.6026 60.0314 81.8684 60.1638L86.1673 62.3055V64.6057C86.1673 66.5238 87.3 68.2609 89.0552 69.0345L89.7263 69.3302C90.8888 69.8426 92.2361 69.6977 93.2631 68.9499L110.993 86.2087C112.839 88.0057 115.222 89.1488 117.779 89.4632C121.401 89.9086 125.026 88.6522 127.595 86.0603L134.549 79.044Z" fill="#FE9C9A"/>
</g>
<g id="Man - face 1">
<path id="Path 5" fill-rule="evenodd" clip-rule="evenodd" d="M104.82 25.5441L105.106 36.9832C105.176 39.7922 107.473 42.0328 110.283 42.0328V46.0019C110.283 46.0019 107.124 51.6134 110.962 53.1946C114.801 54.7759 120.316 47.2454 120.316 47.2454L118.815 27.263L110.962 23.2358L104.82 25.5441Z" fill="#FE9C9A"/>
<path id="Path 12" fill-rule="evenodd" clip-rule="evenodd" d="M106.972 36.142L109.374 35.6831C109.374 35.6831 108.992 37.2236 108.151 37.2088C107.309 37.1941 106.972 36.142 106.972 36.142Z" fill="white"/>
<path id="Path 10" d="M106.332 30.5015C106.341 30.407 106.272 30.3232 106.178 30.3142C106.084 30.3053 106.001 30.3747 105.992 30.4692L105.613 34.5133H107.152C107.246 34.5133 107.323 34.4363 107.323 34.3414C107.323 34.2465 107.246 34.1695 107.152 34.1695H105.988L106.332 30.5015Z" fill="#19243D"/>
<path id="Rectangle_5" fill-rule="evenodd" clip-rule="evenodd" d="M109.301 28.3364C109.293 28.0992 109.094 27.9136 108.857 27.9219L107.666 27.9637C107.429 27.9721 107.243 28.171 107.251 28.4081C107.259 28.6453 107.459 28.831 107.696 28.8226L108.887 28.7808C109.124 28.7725 109.31 28.5735 109.301 28.3364Z" fill="#19243D"/>
<path id="Rectangle_6" fill-rule="evenodd" clip-rule="evenodd" d="M106.054 28.5087C106.046 28.2714 105.847 28.0858 105.609 28.0941L104.418 28.136C104.181 28.1443 103.995 28.3432 104.004 28.5803C104.012 28.8176 104.211 29.0032 104.448 28.9949L105.64 28.953C105.877 28.9447 106.062 28.7458 106.054 28.5087Z" fill="#19243D"/>
<path id="Path 11" d="M115.093 29.4479C115.093 29.4479 115.833 29.7227 115.315 30.7926" stroke="#19243D" stroke-width="0.8" stroke-linecap="round"/>
<path id="Oval_6" fill-rule="evenodd" clip-rule="evenodd" d="M112.027 29.797C112.027 31.221 110.879 32.3753 109.463 32.3753C108.046 32.3753 106.898 31.221 106.898 29.797C106.898 28.3731 108.046 27.2188 109.463 27.2188C110.879 27.2188 112.027 28.3731 112.027 29.797ZM107.238 29.7977C107.238 31.0318 108.233 32.0322 109.46 32.0322C110.687 32.0322 111.682 31.0318 111.682 29.7977C111.682 28.5636 110.687 27.5632 109.46 27.5632C108.233 27.5632 107.238 28.5636 107.238 29.7977Z" fill="white"/>
<g id="Group 4">
<path id="Oval_7" fill-rule="evenodd" clip-rule="evenodd" d="M105.957 29.9693C105.957 31.3932 104.808 32.5475 103.392 32.5475C101.976 32.5475 100.828 31.3932 100.828 29.9693C100.828 28.5453 101.976 27.391 103.392 27.391C104.808 27.391 105.957 28.5453 105.957 29.9693ZM101.171 29.9689C101.171 31.203 102.166 32.2034 103.394 32.2034C104.621 32.2034 105.616 31.203 105.616 29.9689C105.616 28.7348 104.621 27.7344 103.394 27.7344C102.166 27.7344 101.171 28.7348 101.171 29.9689Z" fill="white"/>
<path id="Path" d="M105.064 31.9245C105.136 31.8626 105.144 31.7541 105.082 31.6821C105.021 31.6101 104.913 31.602 104.841 31.6639C104.441 32.0102 103.932 32.2038 103.392 32.2038C102.165 32.2038 101.17 31.2033 101.17 29.9693C101.17 28.7352 102.165 27.7348 103.392 27.7348C103.487 27.7348 103.581 27.7407 103.674 27.7525C103.768 27.7644 103.853 27.6977 103.865 27.6035C103.877 27.5093 103.811 27.4234 103.717 27.4115C103.61 27.3979 103.502 27.391 103.392 27.391C101.976 27.391 100.828 28.5453 100.828 29.9693C100.828 31.3932 101.976 32.5475 103.392 32.5475C104.014 32.5475 104.602 32.324 105.064 31.9245Z" fill="#19243D"/>
</g>
<ellipse id="Oval_8" rx="0.34191" ry="0.343769" transform="matrix(-1 0 0 1 105.043 29.7979)" fill="#19243D"/>
<ellipse id="Oval_9" rx="0.34191" ry="0.343769" transform="matrix(-1 0 0 1 108.592 29.7979)" fill="#19243D"/>
<path id="Path 6" fill-rule="evenodd" clip-rule="evenodd" d="M119.521 37.3328L115.517 31.6731L116.43 30.6554C116.865 30.1702 116.921 29.4539 116.567 28.907C116.192 28.328 115.46 28.0951 114.819 28.3511L114.594 28.4408C114.184 28.6047 113.888 28.9685 113.81 29.4032L113.53 30.9758C113.483 31.2384 113.254 31.4296 112.988 31.4296C112.697 31.4296 112.457 31.2052 112.431 30.9161C112.352 30.0164 112.154 28.2209 111.818 27.9105C111.367 27.4932 110.26 27.8075 110.043 24.9658C108.543 25.9335 104.821 25.545 104.821 25.545L104.919 28.8608C104.919 28.8608 102.169 26.1844 102.169 23.6615C102.169 21.1386 104.376 21.9517 104.376 21.9517C104.376 21.9517 103.437 17.2619 106.545 18.0519C109.653 18.8419 115.19 17.644 118.816 21.9517C123.007 23.0682 122.296 25.157 121.862 27.2892C121.428 29.4214 119.521 37.3328 119.521 37.3328Z" fill="#19243D"/>
<path id="Path 7" fill-rule="evenodd" clip-rule="evenodd" d="M110.282 42.033H114.97L110.282 44.0919V42.033Z" fill="#19243D"/>
</g>
</g>
</g>
</g>
</g>
<path id="Path 138" d="M36.2905 96.2135V95.545H186.225V96.2135H36.2905Z" fill="#19243D"/>
</g>
</svg>
