<svg width="99" height="17" viewBox="0 0 99 17" fill="none" xmlns="http://www.w3.org/2000/svg">
<g clip-path="url(#clip0)">
<path d="M37.411 7.20653V7.94566C37.411 10.1015 36.7926 11.7029 35.3704 13.1196C33.9481 14.5362 32.2167 15.2754 30.238 15.2754C26.1568 15.2754 23.0649 12.1957 23.0649 8.13044C23.0649 4.00363 26.0949 0.92392 30.1761 0.92392C32.4022 0.92392 34.4428 1.84783 35.8032 3.57247L33.639 5.23551C32.5877 4.00363 31.5984 3.51088 30.238 3.51088C27.8263 3.51088 25.9712 5.48189 25.9712 8.06885C25.9712 10.6558 27.8882 12.6268 30.2998 12.6268C31.4747 12.6268 32.6496 12.1341 33.3916 11.2102C33.8245 10.7174 34.01 10.2862 34.2573 9.48551H30.3616V7.14493H37.411V7.20653Z" fill="white"/>
<path d="M49.2837 10.2862C49.2837 13.1195 46.9957 15.3369 44.0276 15.3369C40.9976 15.3369 38.7715 13.1811 38.7715 10.2246C38.7715 7.14489 40.9358 5.05069 44.0276 5.05069C47.0576 5.05069 49.2837 7.26808 49.2837 10.2862ZM41.4304 10.163C41.4304 11.8261 42.4817 12.9347 44.0276 12.9347C45.5735 12.9347 46.6247 11.7645 46.6247 10.2246C46.6247 8.49997 45.6353 7.39127 44.0894 7.39127C42.4817 7.39127 41.4304 8.49996 41.4304 10.163Z" fill="white"/>
<path d="M55.838 1.17032C57.5694 1.17032 58.6206 1.4167 59.3626 1.97104C60.2283 2.58699 60.723 3.69568 60.723 4.92757C60.723 5.85148 60.4138 6.6522 59.8573 7.26815C59.4863 7.63771 59.1771 7.82249 58.3732 8.06887C59.1771 8.25365 59.61 8.43844 60.0428 8.808C60.6612 9.36235 61.0322 10.2247 61.0322 11.2718C61.0322 12.5652 60.4757 13.6739 59.61 14.2899C58.8679 14.7826 58.0022 14.9674 56.5182 14.9674H51.3857V1.17032H55.838ZM54.2302 7.02177H55.4051C57.0747 7.02177 57.8786 6.40583 57.8786 5.11235C57.8786 4.43481 57.5694 3.81887 57.0747 3.57249C56.7037 3.38771 56.0853 3.32612 55.2814 3.32612H54.2921V7.02177H54.2302ZM54.2302 12.8732H55.6524C56.6418 12.8732 57.0747 12.8116 57.5075 12.5037C57.9404 12.1957 58.1877 11.7029 58.1877 11.0254C58.1877 10.2863 57.9404 9.73191 57.3839 9.42394C56.951 9.17757 56.5182 9.11597 55.4669 9.11597H54.2302V12.8732Z" fill="white"/>
<path d="M70.555 5.35867H73.214V14.9674H70.555V13.6123C69.6893 14.7826 68.6381 15.2753 67.2158 15.2753C64.4951 15.2753 62.5781 13.1811 62.5781 10.2246C62.5781 7.2065 64.6187 4.98911 67.4632 4.98911C68.7618 4.98911 69.6893 5.42026 70.6168 6.52896V5.35867H70.555ZM65.3608 10.2246C65.3608 11.8877 66.4738 13.1811 67.8961 13.1811C69.3801 13.1811 70.555 11.8261 70.555 10.163C70.555 8.43838 69.442 7.26809 67.8961 7.26809C66.412 7.26809 65.3608 8.49997 65.3608 10.2246Z" fill="white"/>
<path d="M78.47 5.35866V6.77533C78.7174 6.09779 78.9029 5.78982 79.3357 5.48185C79.7686 5.17388 80.3251 5.05069 80.8816 5.05069C80.9435 5.05069 81.0671 5.05069 81.1908 5.05069V7.76083C81.0053 7.76083 80.758 7.69924 80.6343 7.69924C79.8922 7.69924 79.212 8.00721 78.841 8.56156C78.5318 8.99272 78.47 9.42388 78.47 10.3478V14.9674H75.811V5.35866H78.47Z" fill="white"/>
<path d="M85.8907 12.134C85.8907 12.5652 86.0762 12.75 86.6327 12.75H87.0656V14.9674H84.9631C83.7264 14.9674 83.2317 14.413 83.2317 13.1196V7.51448H82.1187V5.35869H83.2317V2.77173H85.8907V5.35869H87.1274V7.57608H85.8907V12.134Z" fill="white"/>
<path d="M96.3412 5.35867H99.0002V14.9674H96.3412V13.6123C95.4755 14.7826 94.4242 15.2753 93.002 15.2753C90.2812 15.2753 88.3643 13.1811 88.3643 10.2246C88.3643 7.2065 90.4049 4.98911 93.2494 4.98911C94.5479 4.98911 95.4755 5.42026 96.403 6.52896V5.35867H96.3412ZM91.2087 10.2246C91.2087 11.8877 92.3218 13.1811 93.744 13.1811C95.2281 13.1811 96.403 11.8261 96.403 10.163C96.403 8.43838 95.29 7.26809 93.744 7.26809C92.26 7.26809 91.2087 8.49997 91.2087 10.2246Z" fill="white"/>
<path d="M17.2521 0V3.88043L13.3564 0H17.2521Z" fill="#00D57C"/>
<path d="M17.2523 6.22101V17.0616H8.53342C3.83385 17 0 13.2428 0 8.5C0 3.81884 3.83385 0 8.53342 0H11.8726L11.6871 6.46739L3.89569 6.77536L11.4397 14.3514L11.6871 6.46739L17.2523 6.22101Z" fill="#00D57C"/>
</g>
<defs>
<clipPath id="clip0">
<rect width="99" height="17" fill="white"/>
</clipPath>
</defs>
</svg>
