<svg width="187" height="32" viewBox="0 0 187 32" fill="none" xmlns="http://www.w3.org/2000/svg">
<g clip-path="url(#clip0)">
<path d="M70.665 13.5652V14.9565C70.665 19.0145 69.4969 22.029 66.8105 24.6957C64.124 27.3623 60.8536 28.7536 57.1159 28.7536C49.407 28.7536 43.5669 22.9565 43.5669 15.3044C43.5669 7.53624 49.2902 1.73914 56.9991 1.73914C61.204 1.73914 65.0585 3.47827 67.6281 6.72464L63.54 9.85508C61.5544 7.53624 59.6856 6.6087 57.1159 6.6087C52.5607 6.6087 49.0566 10.3188 49.0566 15.1884C49.0566 20.058 52.6775 23.7681 57.2327 23.7681C59.452 23.7681 61.6712 22.8406 63.0728 21.1015C63.8904 20.1739 64.2409 19.3623 64.7081 17.8551H57.3495V13.4493H70.665V13.5652Z" fill="#1C1F26"/>
<path d="M93.0907 19.3623C93.0907 24.6956 88.769 28.8695 83.1625 28.8695C77.4392 28.8695 73.2344 24.8116 73.2344 19.2463C73.2344 13.4492 77.3224 9.5072 83.1625 9.5072C88.8858 9.5072 93.0907 13.6811 93.0907 19.3623ZM78.2569 19.1304C78.2569 22.2608 80.2425 24.3478 83.1625 24.3478C86.0826 24.3478 88.0682 22.1449 88.0682 19.2463C88.0682 16 86.1994 13.913 83.2794 13.913C80.2425 13.913 78.2569 16 78.2569 19.1304Z" fill="#1C1F26"/>
<path d="M105.472 2.20294C108.742 2.20294 110.728 2.66671 112.129 3.71019C113.765 4.86961 114.699 6.95657 114.699 9.27541C114.699 11.0145 114.115 12.5218 113.064 13.6812C112.363 14.3769 111.779 14.7247 110.261 15.1885C111.779 15.5363 112.597 15.8841 113.414 16.5798C114.582 17.6232 115.283 19.2464 115.283 21.2174C115.283 23.6522 114.232 25.7392 112.597 26.8986C111.195 27.8261 109.56 28.174 106.757 28.174H97.062V2.20294H105.472ZM102.435 13.2174H104.654C107.808 13.2174 109.326 12.058 109.326 9.62323C109.326 8.34787 108.742 7.18845 107.808 6.72468C107.107 6.37686 105.939 6.26091 104.421 6.26091H102.552V13.2174H102.435ZM102.435 24.2319H105.121C106.99 24.2319 107.808 24.116 108.625 23.5363C109.443 22.9566 109.91 22.029 109.91 20.7537C109.91 19.3624 109.443 18.3189 108.392 17.7392C107.574 17.2754 106.757 17.1595 104.771 17.1595H102.435V24.2319Z" fill="#1C1F26"/>
<path d="M133.271 10.0869H138.293V28.1739H133.271V25.6232C131.635 27.8261 129.65 28.7536 126.963 28.7536C121.824 28.7536 118.203 24.8116 118.203 19.2464C118.203 13.5652 122.058 9.3913 127.43 9.3913C129.883 9.3913 131.635 10.2029 133.387 12.2898V10.0869H133.271ZM123.459 19.2464C123.459 22.3768 125.562 24.8116 128.248 24.8116C131.051 24.8116 133.271 22.2609 133.271 19.1304C133.271 15.884 131.168 13.6812 128.248 13.6812C125.445 13.6812 123.459 16 123.459 19.2464Z" fill="#1C1F26"/>
<path d="M148.221 10.0869V12.7536C148.688 11.4782 149.039 10.8985 149.856 10.3188C150.674 9.73909 151.725 9.5072 152.777 9.5072C152.893 9.5072 153.127 9.5072 153.361 9.5072V14.6087C153.01 14.6087 152.543 14.4927 152.309 14.4927C150.908 14.4927 149.623 15.0724 148.922 16.1159C148.338 16.9275 148.221 17.7391 148.221 19.4782V28.1739H143.199V10.0869H148.221Z" fill="#1C1F26"/>
<path d="M162.238 22.8406C162.238 23.6522 162.588 24 163.639 24H164.457V28.1739H160.486C158.15 28.1739 157.215 27.1305 157.215 24.6957V14.1449H155.113V10.087H157.215V5.21741H162.238V10.087H164.574V14.2609H162.238V22.8406Z" fill="#1C1F26"/>
<path d="M181.977 10.0869H187V28.1739H181.977V25.6232C180.342 27.8261 178.356 28.7536 175.67 28.7536C170.531 28.7536 166.91 24.8116 166.91 19.2464C166.91 13.5652 170.764 9.3913 176.137 9.3913C178.59 9.3913 180.342 10.2029 182.094 12.2898V10.0869H181.977ZM172.283 19.2464C172.283 22.3768 174.385 24.8116 177.071 24.8116C179.875 24.8116 182.094 22.2609 182.094 19.1304C182.094 15.884 179.992 13.6812 177.071 13.6812C174.268 13.6812 172.283 16 172.283 19.2464Z" fill="#1C1F26"/>
<path d="M32.588 0V7.30435L25.2295 0H32.588Z" fill="#00D57C"/>
<path d="M32.5878 11.7101V32.1159H16.1187C7.24172 32 0 24.9275 0 16C0 7.18841 7.24172 0 16.1187 0H22.426L22.0756 12.1739L7.35853 12.7536L21.6084 27.0145L22.0756 12.1739L32.5878 11.7101Z" fill="#00D57C"/>
</g>
<defs>
<clipPath id="clip0">
<rect width="187" height="32" fill="white"/>
</clipPath>
</defs>
</svg>
