<svg width="40" height="42" viewBox="0 0 40 42" fill="none" xmlns="http://www.w3.org/2000/svg">
<rect width="40" height="40" rx="10" fill="#DAF9EC"/>
<path d="M25.45 29.5L25.21 29.23C24.34 28.33 23.89 27.16 23.89 25.93V21.4C23.89 21.37 23.89 21.37 23.86 21.34V15.01C23.86 13.87 23.89 12.7 23.92 11.5C23.92 10.42 23.95 9.52 24.01 8.83C24.01 8.68 23.95 8.5 23.83 8.38L23.77 8.35C23.59 8.14 23.32 8.11 23.08 8.23C21.82 8.95 20.44 9.52 19.03 9.97C17.62 10.39 16.09 10.72 14.53 10.93C14.2 10.99 13.99 11.26 14.02 11.56L14.05 12.01C14.05 12.16 14.14 12.31 14.26 12.43C14.38 12.52 14.53 12.58 14.68 12.55H15.01C15.88 12.46 16.42 12.61 16.66 12.91C16.84 13.15 17.02 13.87 17.02 16.09V26.08C16.99 27.25 16.54 28.36 15.73 29.23L15.46 29.5C15.28 29.65 15.25 29.92 15.34 30.13C15.43 30.34 15.64 30.49 15.88 30.49H25.03C25.27 30.49 25.48 30.34 25.57 30.13C25.66 29.92 25.63 29.65 25.45 29.5Z" fill="#00D57C"/>
</svg>
