<svg width="40" height="42" viewBox="0 0 40 42" fill="none" xmlns="http://www.w3.org/2000/svg">
<rect width="40" height="40" rx="10" fill="#DAF9EC"/>
<path d="M29.24 23.2C28.94 23.11 28.64 23.23 28.52 23.5C28.13 24.25 27.74 24.79 27.32 25.06C26.87 25.39 26.24 25.66 25.46 25.84C24.89 25.99 24.26 26.08 23.54 26.17C22.79 26.26 21.98 26.32 21.05 26.35L17.45 26.53C18.53 25.6 20.03 24.37 21.08 23.71C22.88 22.57 24.02 21.85 24.41 21.58C26.15 20.38 27.38 19.21 28.13 18.1C28.85 16.99 29.21 15.73 29.21 14.35C29.21 12.37 28.55 10.84 27.14 9.7C25.61 8.47 22.85 8.02 20.78 8.02C19.76 8.02 18.77 8.14 17.84 8.41C16.88 8.65 16.01 9.07 15.23 9.58C14.33 10.18 13.61 10.9 13.07 11.71C12.53 12.52 12.26 13.3 12.29 14.02C12.32 14.83 12.68 15.46 13.34 15.85C14.18 16.39 16.1 16.51 16.67 16.54C16.73 16.54 16.82 16.51 16.88 16.51L17.09 16.42C17.36 16.33 17.51 16.06 17.48 15.79C17.27 13.9 17.33 12.46 17.69 11.41C18.08 10.33 18.74 9.79 19.7 9.79C20.57 9.79 21.29 10.15 21.83 10.9C22.4 11.65 22.7 12.67 22.7 13.9C22.7 15.97 21.86 18.22 20.24 20.59C18.62 22.9 15.98 25.69 12.38 28.9C12.26 29.02 12.2 29.17 12.2 29.35V29.89C12.2 30.22 12.44 30.49 12.77 30.49H27.92C28.22 30.49 28.46 30.28 28.52 30.01L29.63 23.86C29.69 23.56 29.51 23.29 29.24 23.2Z" fill="#00D57C"/>
</svg>
