<svg width="40" height="42" viewBox="0 0 40 42" fill="none" xmlns="http://www.w3.org/2000/svg">
<rect width="40" height="40" rx="10" fill="#DAF9EC"/>
<path d="M26.3 19.54C24.5 18.49 22.19 18.34 20.57 18.37L27.35 12.79C27.5 12.67 27.59 12.49 27.59 12.31V9.22C27.59 8.89 27.32 8.62 26.99 8.62H14.54C14.21 8.62 13.94 8.89 13.94 9.22L13.88 15.58C13.88 15.73 13.94 15.88 14.06 16C14.18 16.12 14.33 16.18 14.48 16.18H14.54C14.78 16.18 15.02 16.03 15.11 15.79L15.23 15.4C15.5 14.56 16.13 14.02 17.18 13.72C18.26 13.39 19.91 13.18 22.25 13.09L24.38 13L17.66 18.85C17.51 19 17.45 19.18 17.48 19.39C17.51 19.6 17.63 19.75 17.81 19.84C19.37 20.53 20.57 21.4 21.41 22.45C22.28 23.53 22.73 24.79 22.73 26.2C22.73 27.28 22.46 28.15 21.98 28.78C21.5 29.41 20.84 29.71 20.03 29.71C19.22 29.71 18.53 29.38 17.9 28.69C17.3 28 16.61 26.65 15.86 24.64C15.8 24.46 15.68 24.34 15.5 24.28L15.2 24.16C15.11 24.13 15.02 24.13 14.9 24.13C14.09 24.28 13.43 24.55 12.95 24.91C12.44 25.33 12.2 25.84 12.2 26.41C12.2 27.61 12.92 28.69 14.42 29.65C15.86 30.58 17.63 31.06 19.67 31.06C22.34 31.06 24.56 30.34 26.27 28.93C28.01 27.49 28.88 25.78 28.88 23.71C28.88 21.91 28.01 20.5 26.3 19.54Z" fill="#00D57C"/>
</svg>
