<svg width="145" height="46" viewBox="0 0 145 46" fill="none" xmlns="http://www.w3.org/2000/svg">
<rect x="0.44043" width="144.559" height="45.6928" rx="4" fill="#212B4B"/>
<path d="M31.2932 22.1192C31.2932 18.578 34.2296 16.8646 34.3425 16.7503C32.6485 14.3514 30.1639 14.0087 29.2604 13.8945C27.1146 13.6661 24.9688 15.1511 23.9523 15.1511C22.8229 15.1511 21.1289 13.8945 19.3219 13.8945C16.9502 13.8945 14.8044 15.2653 13.5621 17.4357C11.0775 21.7765 12.8845 28.1735 15.2562 31.7147C16.4985 33.4282 17.8537 35.3702 19.6607 35.2559C21.4677 35.1417 22.1453 34.1136 24.2911 34.1136C26.4369 34.1136 27.0016 35.2559 28.9216 35.2559C30.8415 35.2559 32.0838 33.5424 33.2132 31.829C34.5684 29.887 35.1331 27.9451 35.1331 27.8308C35.0202 27.7166 31.2932 26.3458 31.2932 22.1192Z" fill="white"/>
<path d="M27.7947 11.6097C28.6982 10.3531 29.3758 8.75385 29.2629 7.04036C27.9076 7.15459 26.1006 7.95422 25.1971 9.21077C24.2936 10.2389 23.5031 11.9524 23.7289 13.5516C25.1971 13.6658 26.7782 12.752 27.7947 11.6097Z" fill="white"/>
<path d="M57.0421 28.9313H54.5575L53.2022 24.5905H48.4589L47.1036 28.9313H44.7319L49.3624 14.1954H52.2987L57.0421 28.9313ZM52.7505 22.7628L51.5082 18.8789C51.3952 18.5362 51.1694 17.5081 50.7176 16.1373C50.6047 16.7085 50.3788 17.7366 50.04 18.8789L48.7977 22.7628H52.7505Z" fill="white"/>
<path d="M69.1282 23.5621C69.1282 25.3898 68.6765 26.7606 67.66 27.9029C66.7565 28.8168 65.7401 29.2737 64.3848 29.2737C63.0296 29.2737 62.0132 28.8168 61.4485 27.7887V33.3861H59.0768V21.9629C59.0768 20.8205 59.0768 19.6782 58.9639 18.4217H60.9967L61.1097 20.1351C61.9002 18.8786 63.0296 18.1932 64.6107 18.1932C65.853 18.1932 66.8695 18.6501 67.66 19.6782C68.6765 20.5921 69.1282 21.8486 69.1282 23.5621ZM66.7565 23.5621C66.7565 22.534 66.5307 21.6202 66.0789 21.049C65.6272 20.3636 64.9495 20.0209 64.046 20.0209C63.4814 20.0209 62.9167 20.2494 62.4649 20.5921C62.0132 20.9348 61.6744 21.5059 61.5614 22.0771C61.4485 22.4198 61.4485 22.6482 61.4485 22.7625V24.5902C61.4485 25.3898 61.6744 25.961 62.1261 26.5321C62.5779 27.1033 63.2555 27.3318 63.9331 27.3318C64.8366 27.3318 65.5142 26.9891 65.966 26.3037C66.4177 25.6183 66.7565 24.7044 66.7565 23.5621Z" fill="white"/>
<path d="M81.2151 23.5621C81.2151 25.3898 80.7634 26.7606 79.7469 27.9029C78.8434 28.8168 77.827 29.2737 76.4718 29.2737C75.1165 29.2737 74.1001 28.8168 73.5354 27.7887V33.3861H71.1637V21.9629C71.1637 20.8205 71.1637 19.6782 71.0508 18.4217H73.0836L73.1966 20.1351C73.9871 18.8786 75.1165 18.1932 76.6976 18.1932C77.9399 18.1932 78.9564 18.6501 79.7469 19.6782C80.7634 20.5921 81.2151 21.8486 81.2151 23.5621ZM78.8434 23.5621C78.8434 22.534 78.6176 21.6202 78.1658 21.049C77.7141 20.3636 77.0364 20.0209 76.1329 20.0209C75.5683 20.0209 75.0036 20.2494 74.5518 20.5921C74.1001 20.9348 73.7613 21.5059 73.6483 22.0771C73.5354 22.4198 73.5354 22.6482 73.5354 22.7625V24.5902C73.5354 25.3898 73.7613 25.961 74.213 26.5321C74.6648 27.1033 75.3424 27.3318 76.02 27.3318C76.9235 27.3318 77.6011 26.9891 78.0529 26.3037C78.5046 25.6183 78.8434 24.7044 78.8434 23.5621Z" fill="white"/>
<path d="M94.6506 24.8186C94.6506 26.0751 94.1988 27.1032 93.4083 27.9028C92.5048 28.8167 91.1495 29.1594 89.4555 29.1594C87.8743 29.1594 86.632 28.8167 85.7285 28.2455L86.2932 26.3036C87.3096 26.8747 88.439 27.2174 89.6813 27.2174C90.5848 27.2174 91.2625 26.989 91.7142 26.6463C92.166 26.1893 92.3918 25.7324 92.3918 25.047C92.3918 24.4759 92.166 23.9047 91.8271 23.562C91.3754 23.1051 90.6978 22.7624 89.7943 22.4197C87.1967 21.5058 85.9544 20.0208 85.9544 18.1931C85.9544 16.9365 86.4061 16.0227 87.3096 15.223C88.2131 14.4234 89.3425 14.0807 90.9236 14.0807C92.2789 14.0807 93.2953 14.3092 94.1988 14.7661L93.6341 16.7081C92.8436 16.2511 91.9401 16.0227 90.8107 16.0227C90.0201 16.0227 89.3425 16.2511 88.8908 16.5938C88.552 16.9365 88.3261 17.3935 88.3261 17.9646C88.3261 18.5358 88.552 18.9927 89.0037 19.4496C89.3425 19.7923 90.1331 20.135 91.1495 20.592C92.3918 21.0489 93.2953 21.7343 93.973 22.4197C94.4247 22.9908 94.6506 23.7905 94.6506 24.8186Z" fill="white"/>
<path d="M102.442 20.1349H99.8447V25.2753C99.8447 26.5318 100.297 27.2172 101.2 27.2172C101.652 27.2172 101.991 27.2172 102.216 27.103L102.329 28.9307C101.878 29.1592 101.313 29.1592 100.522 29.1592C99.6189 29.1592 98.8283 28.9307 98.3766 28.3595C97.8119 27.7884 97.586 26.8745 97.586 25.5038V20.1349H96.0049V18.3071H97.586V16.3652L99.8447 15.6798V18.3071H102.442V20.1349Z" fill="white"/>
<path d="M114.078 23.5617C114.078 25.1609 113.626 26.5317 112.722 27.5598C111.706 28.5879 110.464 29.1591 108.882 29.1591C107.301 29.1591 106.059 28.5879 105.156 27.5598C104.252 26.5317 103.8 25.2752 103.8 23.6759C103.8 22.0767 104.252 20.7059 105.268 19.6778C106.172 18.6497 107.527 18.0785 109.108 18.0785C110.689 18.0785 111.932 18.6497 112.835 19.6778C113.626 20.7059 114.078 21.9624 114.078 23.5617ZM111.593 23.6759C111.593 22.6478 111.367 21.8482 110.915 21.1628C110.464 20.3632 109.673 19.9062 108.77 19.9062C107.866 19.9062 107.075 20.3632 106.624 21.1628C106.172 21.8482 105.946 22.7621 105.946 23.6759C105.946 24.704 106.172 25.5036 106.624 26.189C107.075 26.9887 107.866 27.4456 108.77 27.4456C109.673 27.4456 110.351 26.9887 110.915 26.189C111.367 25.5036 111.593 24.5898 111.593 23.6759Z" fill="white"/>
<path d="M121.641 20.3638C121.415 20.3638 121.189 20.2495 120.85 20.2495C120.06 20.2495 119.382 20.5922 118.93 21.1634C118.591 21.7345 118.365 22.4199 118.365 23.2196V28.8169H115.994V21.5061C115.994 20.2495 115.994 19.2214 115.881 18.1934H117.914L118.027 20.2495H118.14C118.365 19.5641 118.817 18.993 119.269 18.536C119.834 18.1934 120.398 17.9649 120.963 17.9649C121.189 17.9649 121.415 17.9649 121.528 17.9649V20.3638H121.641Z" fill="white"/>
<path d="M132.034 23.1048C132.034 23.5617 132.034 23.9044 131.921 24.1328H124.919C124.919 25.1609 125.258 25.9606 125.936 26.5317C126.501 26.9887 127.291 27.3314 128.195 27.3314C129.211 27.3314 130.227 27.2171 131.018 26.8744L131.357 28.4737C130.34 28.9306 129.211 29.1591 127.856 29.1591C126.275 29.1591 124.919 28.7021 124.016 27.674C123.112 26.7602 122.661 25.3894 122.661 23.7901C122.661 22.1909 123.112 20.8201 123.903 19.792C124.806 18.6497 126.049 18.0785 127.63 18.0785C129.098 18.0785 130.34 18.6497 131.018 19.792C131.696 20.7059 132.034 21.8482 132.034 23.1048ZM129.776 22.5336C129.776 21.8482 129.663 21.277 129.324 20.7059C128.872 20.0205 128.307 19.6778 127.517 19.6778C126.726 19.6778 126.162 20.0205 125.71 20.5916C125.371 21.0486 125.145 21.734 125.032 22.4194H129.776V22.5336Z" fill="white"/>
</svg>
