<svg width="167" height="120" viewBox="0 0 167 120" fill="none" xmlns="http://www.w3.org/2000/svg">
<g id="Scene 14">
<g id="Path 121">
<rect id="Mask" x="124.221" y="29.3748" width="18.1962" height="18.9543" rx="9.09808" fill="#FF555D"/>
<mask id="mask0" mask-type="alpha" maskUnits="userSpaceOnUse" x="124" y="29" width="19" height="20">
<rect id="Mask_2" x="124.221" y="29.3748" width="18.1962" height="18.9543" rx="9.09808" fill="white"/>
</mask>
<g mask="url(#mask0)">
<path id="Path 121_2" d="M124.915 31.5687C124.915 31.5687 133.12 29.4231 134.629 30.1383C136.138 30.8535 129.772 31.811 129.772 33.5378C129.772 35.2647 136.095 33.9238 142.174 32.2629C148.253 30.6021 150.854 33.3972 146.444 35.5911C142.035 37.7849 128.594 43.8904 124.915 42.8616C121.236 41.8329 132.521 39.3167 136.138 38.3035C139.755 37.2903 137.476 35.5911 134.765 35.5911C132.055 35.5911 123.484 37.0119 121.236 36.0939C118.988 35.1758 112.7 45.1884 121.236 45.1884C129.772 45.1884 146.476 40.9156 149.914 37.5739C153.353 34.2323 151.017 43.7884 133.403 46.7476" stroke="white"/>
</g>
</g>
<g id="Oval + Path 143 Mask">
<path id="Mask_3" fill-rule="evenodd" clip-rule="evenodd" d="M50.1724 57.9806C50.1724 45.9506 59.9246 36.1984 71.9546 36.1984H113.099C125.129 36.1984 134.882 45.9506 134.882 57.9806C134.882 70.0106 125.129 79.7628 113.099 79.7628H71.9546C59.9246 79.7628 50.1724 70.0106 50.1724 57.9806Z" fill="#B6F3D9"/>
<mask id="mask1" mask-type="alpha" maskUnits="userSpaceOnUse" x="50" y="36" width="85" height="44">
<path id="Mask_4" fill-rule="evenodd" clip-rule="evenodd" d="M50.1724 57.9806C50.1724 45.9506 59.9246 36.1984 71.9546 36.1984H113.099C125.129 36.1984 134.882 45.9506 134.882 57.9806C134.882 70.0106 125.129 79.7628 113.099 79.7628H71.9546C59.9246 79.7628 50.1724 70.0106 50.1724 57.9806Z" fill="white"/>
</mask>
<g mask="url(#mask1)">
<path id="Path 144" d="M49.2402 68.1366C49.2402 68.1366 68.0126 77.1458 93.2817 71.6618C118.551 66.1777 111.519 82.5602 111.519 82.5602" stroke="white" stroke-width="18"/>
<path id="Path 143" d="M42.8047 63.9323C42.8047 63.9323 64.4501 50.4872 71.4419 53.23C78.4337 55.9727 71.0441 59.6801 77.2164 62.02C83.0564 64.2339 108.978 57.1271 115.839 57.7379C122.699 58.3488 117.432 66.5184 135.12 61.5924" stroke="white" stroke-width="18"/>
</g>
</g>
<g id="Woman - Top 5">
<g id="man - body 2">
<path id="Path 56" fill-rule="evenodd" clip-rule="evenodd" d="M127.505 59.8195L131.208 67.2344C133.053 70.9294 136.828 73.2641 140.958 73.2641C144.371 73.2641 147.586 71.6659 149.646 68.9458L165.245 48.3501L159.595 45.3467L141.031 59.8195L137.963 54.4503L127.505 59.8195Z" fill="#FE9C9A"/>
<path id="Path 14" fill-rule="evenodd" clip-rule="evenodd" d="M99.9334 27.4407C88.5444 30.1363 81.3631 41.3992 83.7246 52.8622L85.6843 62.3749L87.2861 65.1383C89.8529 69.5668 91.0716 74.6481 90.7928 79.7591H124.421L122.882 65.7083L123.619 65.5377C126.055 64.9735 127.78 62.8034 127.78 60.3029L140.266 57.877L138.483 53.9213C131.862 39.234 117.895 29.2066 101.861 27.6302L99.9334 27.4407Z" fill="#85B0FF"/>
<path id="Path 49" fill-rule="evenodd" clip-rule="evenodd" d="M101.974 76.5529C107.574 77.0369 113.027 74.5913 116.391 70.087L131.209 50.2434L106.26 60.8174H88.0868L85.686 62.3753L89.386 68.634C92.0567 73.1516 96.7451 76.1011 101.974 76.5529Z" fill="#19243D"/>
<g id="Group 8">
<path id="Rectangle" fill-rule="evenodd" clip-rule="evenodd" d="M144.552 31.2828H163.339L160.82 56.8792H142.033L144.552 31.2828Z" fill="#85B0FF"/>
<path id="Rectangle_2" fill-rule="evenodd" clip-rule="evenodd" d="M145.67 31.2828H164.456L161.937 56.8792H143.151L145.67 31.2828Z" fill="#19243D"/>
<ellipse id="Oval" cx="155.176" cy="35.8859" rx="1.23006" ry="1.23491" fill="white"/>
</g>
<path id="Path 55" fill-rule="evenodd" clip-rule="evenodd" d="M161.489 50.4238C161.489 50.4238 164.466 49.6008 165.207 48.3502C165.812 47.3289 164.879 42.8839 164.517 41.288C164.437 40.9341 164.163 40.6597 163.811 40.5716L158.542 39.2528C158.169 39.1595 157.792 39.3864 157.699 39.7591C157.617 40.0881 157.783 40.4273 158.094 40.5632C159.327 41.1028 162.234 42.3814 161.912 42.3008C161.607 42.2246 158.72 41.9792 157.286 41.8606C156.825 41.8224 156.404 42.125 156.293 42.5745C156.167 43.0809 156.475 43.5935 156.981 43.7202L161.291 44.7991L158.099 45.4028C157.578 45.5011 157.257 46.0278 157.407 46.5356C157.509 46.8775 157.804 47.1265 158.158 47.1691L162.646 47.7091L159.226 49.0268C158.847 49.1726 158.643 49.5838 158.756 49.9732C158.858 50.323 159.187 50.5562 159.551 50.5353C160.308 50.4917 161.489 50.4238 161.489 50.4238Z" fill="#FE9C9A"/>
<path id="Path 57" fill-rule="evenodd" clip-rule="evenodd" d="M88.0854 60.8178L99.6035 53.1627L102.949 57.2058L132.206 42.4198C132.694 42.1729 133.207 41.978 133.736 41.8381L142.533 39.5138C143.053 39.3764 143.562 39.7686 143.562 40.3066C143.562 40.6173 143.387 40.9013 143.109 41.0401L138.619 43.2834V45.7074C138.619 47.7083 137.439 49.5208 135.608 50.3298L134.903 50.6417C133.688 51.1785 132.28 51.0268 131.208 50.2438L112.685 68.328C110.76 70.2072 108.272 71.4031 105.602 71.7324C101.819 72.1989 98.0341 70.8842 95.3548 68.1732L88.0854 60.8178Z" fill="#FE9C9A"/>
</g>
<g id="Woman - face 1">
<path id="Path 8" fill-rule="evenodd" clip-rule="evenodd" d="M117.987 9.47998L117.911 29.3472L108.802 28.5949L109.245 11.313L117.987 9.47998Z" fill="#19243D"/>
<path id="Path 5" fill-rule="evenodd" clip-rule="evenodd" d="M116.995 8.38617L116.694 20.1901C116.619 23.1603 114.189 25.5288 111.218 25.5288V29.6554C111.218 29.6554 114.559 35.4895 110.5 37.1334C106.441 38.7774 100.611 30.9482 100.611 30.9482L104.161 10.1273L110.5 5.98633L116.995 8.38617Z" fill="#FE9C9A"/>
<path id="Path 70" d="M106.039 11.9742C106.039 11.9742 105.177 12.6513 106.039 13.471" stroke="#19243D" stroke-linecap="round"/>
<path id="Path 12" fill-rule="evenodd" clip-rule="evenodd" d="M114.797 19.3074L112.291 18.8322C112.291 18.8322 112.689 20.4277 113.567 20.4124C114.445 20.3971 114.797 19.3074 114.797 19.3074Z" fill="white"/>
<path id="Path 10" d="M115.662 13.173C115.652 13.0719 115.732 12.9823 115.841 12.9727C115.95 12.9632 116.047 13.0374 116.057 13.1385L116.498 17.4623H114.71C114.601 17.4623 114.512 17.38 114.512 17.2785C114.512 17.177 114.601 17.0947 114.71 17.0947H116.061L115.662 13.173Z" fill="#19243D"/>
<path id="Rectangle_3" fill-rule="evenodd" clip-rule="evenodd" d="M112.366 11.222C112.374 10.9763 112.58 10.7842 112.826 10.7927L114.076 10.8363C114.322 10.8448 114.514 11.051 114.505 11.2966C114.497 11.5423 114.291 11.7344 114.045 11.7259L112.795 11.6823C112.549 11.6737 112.357 11.4676 112.366 11.222Z" fill="#19243D"/>
<path id="Rectangle_4" fill-rule="evenodd" clip-rule="evenodd" d="M115.757 11.4001C115.766 11.1544 115.972 10.9623 116.217 10.9708L117.467 11.0144C117.713 11.0229 117.905 11.2291 117.896 11.4747C117.888 11.7204 117.682 11.9125 117.436 11.904L116.186 11.8604C115.941 11.8518 115.748 11.6457 115.757 11.4001Z" fill="#19243D"/>
<ellipse id="Oval_2" cx="116.994" cy="12.9723" rx="0.496475" ry="0.498927" fill="#19243D"/>
<ellipse id="Oval_3" cx="113.518" cy="12.9723" rx="0.496475" ry="0.498927" fill="#19243D"/>
<path id="Path 6" fill-rule="evenodd" clip-rule="evenodd" d="M105.591 29.5181C105.591 29.5181 106.337 21.5485 106.582 19.4788C106.826 17.4092 106.013 14.5196 106.013 14.5196L105.086 13.4876C104.618 12.9665 104.558 12.1963 104.939 11.6086C105.323 11.0162 106.059 10.7584 106.729 10.9816L108.242 11.4859C108.758 11.6579 109.307 11.714 109.838 11.5957C111.315 11.2667 114.422 10.3177 115.865 7.96074C116.237 8.94846 117.168 9.55888 117.168 9.55888L117.066 11.5918C117.066 11.5918 119.972 9.46194 119.972 6.83537C119.972 4.2088 117.168 3.63657 117.168 3.63657C117.168 3.63657 117.221 1.18168 114.557 0.688688C112.168 0.246601 106.113 -1.74214 100.344 4.03364C96.645 7.73762 90.4395 29.7615 90.4395 29.7615H94.3769C94.3769 29.7615 94.4266 36.4216 99.5302 36.4216C104.634 36.4216 105.591 29.5181 105.591 29.5181Z" fill="#19243D"/>
<path id="Path 7" fill-rule="evenodd" clip-rule="evenodd" d="M111.533 25.5332L106.568 25.4453L111.533 27.441V25.5332Z" fill="#19243D"/>
</g>
</g>
<path id="Path 138" d="M17.1089 111.921V111.549H164.726V111.921H17.1089Z" fill="#1C1F26"/>
<path id="Shape" fill-rule="evenodd" clip-rule="evenodd" d="M107.739 98.7123C106.972 98.7123 106.349 98.09 106.349 97.3224C106.349 96.5547 106.972 95.9324 107.739 95.9324C108.507 95.9324 109.129 96.5547 109.129 97.3224C109.129 98.09 108.507 98.7123 107.739 98.7123ZM126.442 98.7125C125.674 98.7125 125.052 98.0902 125.052 97.3225C125.052 96.5548 125.674 95.9325 126.442 95.9325C127.21 95.9325 127.832 96.5548 127.832 97.3225C127.832 98.0902 127.21 98.7125 126.442 98.7125ZM120.122 98.7125C119.354 98.7125 118.732 98.0902 118.732 97.3225C118.732 96.5548 119.354 95.9325 120.122 95.9325C120.889 95.9325 121.512 96.5548 121.512 97.3225C121.512 98.0902 120.889 98.7125 120.122 98.7125ZM113.807 98.7125C113.04 98.7125 112.417 98.0902 112.417 97.3225C112.417 96.5548 113.04 95.9325 113.807 95.9325C114.575 95.9325 115.197 96.5548 115.197 97.3225C115.197 98.0902 114.575 98.7125 113.807 98.7125ZM107.739 105.536C106.971 105.536 106.349 104.914 106.349 104.146C106.349 103.378 106.971 102.756 107.739 102.756C108.507 102.756 109.129 103.378 109.129 104.146C109.129 104.914 108.507 105.536 107.739 105.536ZM126.442 105.536C125.674 105.536 125.052 104.914 125.052 104.146C125.052 103.378 125.674 102.756 126.442 102.756C127.21 102.756 127.832 103.378 127.832 104.146C127.832 104.914 127.21 105.536 126.442 105.536ZM120.122 105.536C119.354 105.536 118.732 104.914 118.732 104.146C118.732 103.378 119.354 102.756 120.122 102.756C120.889 102.756 121.512 103.378 121.512 104.146C121.512 104.914 120.889 105.536 120.122 105.536ZM113.807 105.536C113.04 105.536 112.417 104.914 112.417 104.146C112.417 103.378 113.04 102.756 113.807 102.756C114.575 102.756 115.197 103.378 115.197 104.146C115.197 104.914 114.575 105.536 113.807 105.536ZM107.739 112.36C106.971 112.36 106.349 111.737 106.349 110.97C106.349 110.202 106.971 109.58 107.739 109.58C108.507 109.58 109.129 110.202 109.129 110.97C109.129 111.737 108.507 112.36 107.739 112.36ZM126.442 112.36C125.674 112.36 125.052 111.737 125.052 110.97C125.052 110.202 125.674 109.58 126.442 109.58C127.21 109.58 127.832 110.202 127.832 110.97C127.832 111.737 127.21 112.36 126.442 112.36ZM120.122 112.36C119.354 112.36 118.732 111.737 118.732 110.97C118.732 110.202 119.354 109.58 120.122 109.58C120.889 109.58 121.512 110.202 121.512 110.97C121.512 111.737 120.889 112.36 120.122 112.36ZM113.807 112.36C113.04 112.36 112.417 111.737 112.417 110.97C112.417 110.202 113.04 109.58 113.807 109.58C114.575 109.58 115.197 110.202 115.197 110.97C115.197 111.737 114.575 112.36 113.807 112.36ZM107.739 119.436C106.971 119.436 106.349 118.813 106.349 118.046C106.349 117.278 106.971 116.656 107.739 116.656C108.507 116.656 109.129 117.278 109.129 118.046C109.129 118.813 108.507 119.436 107.739 119.436ZM126.442 119.436C125.674 119.436 125.052 118.813 125.052 118.046C125.052 117.278 125.674 116.656 126.442 116.656C127.21 116.656 127.832 117.278 127.832 118.046C127.832 118.813 127.21 119.436 126.442 119.436ZM120.122 119.436C119.354 119.436 118.732 118.813 118.732 118.046C118.732 117.278 119.354 116.656 120.122 116.656C120.889 116.656 121.512 117.278 121.512 118.046C121.512 118.813 120.889 119.436 120.122 119.436ZM113.807 119.436C113.04 119.436 112.417 118.813 112.417 118.046C112.417 117.278 113.04 116.656 113.807 116.656C114.575 116.656 115.197 117.278 115.197 118.046C115.197 118.813 114.575 119.436 113.807 119.436Z" fill="#91ECC6"/>
<g id="Man - Top 7">
<g id="man - body 2_2">
<path id="Path 56_2" fill-rule="evenodd" clip-rule="evenodd" d="M45.8901 90.1532L41.5967 98.7262C39.4468 103.019 35.0571 105.73 30.2559 105.73C26.2911 105.73 22.5543 103.876 20.156 100.719L2.03534 76.8648L8.60115 73.385L30.1726 90.1532L32.512 83.2322L45.8901 90.1532Z" fill="#FE9C9A"/>
<path id="Path 14_2" fill-rule="evenodd" clip-rule="evenodd" d="M83.8836 50.3989C100.209 51.9557 110.335 68.9056 103.969 84.0188L101.113 90.7984L99.8815 100.81C99.3547 105.093 97.3952 109.071 94.3213 112.099H53.0749C50.704 107.852 49.5384 103.038 49.704 98.1762L50.2441 82.3243L45.7265 92.0992L31.5359 85.1299C37.0568 64.6047 55.6823 50.3518 76.9371 50.3873L83.8836 50.3989Z" fill="#00D57C"/>
<g id="Group 22">
<path id="Mask_5" fill-rule="evenodd" clip-rule="evenodd" d="M83.8836 50.3989C100.209 51.9557 110.335 68.9056 103.969 84.0188L101.113 90.7984L99.8815 100.81C99.3547 105.093 97.3952 109.071 94.3213 112.099H53.0749C50.704 107.852 49.5384 103.038 49.704 98.1762L50.2441 82.3243L45.7265 92.0992L31.5359 85.1299C37.0568 64.6047 55.6823 50.3518 76.9371 50.3873L83.8836 50.3989Z" fill="#00D57C"/>
<mask id="mask2" mask-type="alpha" maskUnits="userSpaceOnUse" x="31" y="50" width="75" height="63">
<path id="Mask_6" fill-rule="evenodd" clip-rule="evenodd" d="M83.8836 50.3989C100.209 51.9557 110.335 68.9056 103.969 84.0188L101.113 90.7984L99.8815 100.81C99.3547 105.093 97.3952 109.071 94.3213 112.099H53.0749C50.704 107.852 49.5384 103.038 49.704 98.1762L50.2441 82.3243L45.7265 92.0992L31.5359 85.1299C37.0568 64.6047 55.6823 50.3518 76.9371 50.3873L83.8836 50.3989Z" fill="white"/>
</mask>
<g mask="url(#mask2)">
<path id="Path 49_2" fill-rule="evenodd" clip-rule="evenodd" d="M81.3269 108.384C74.8192 108.945 68.4829 106.108 64.5674 100.88L47.3582 77.9016L76.349 90.1527H97.4671L100.257 91.9577L95.9698 99.188C92.8582 104.436 87.4056 107.86 81.3269 108.384Z" fill="#19243D"/>
<g id="Group 22_2">
<path id="Path 90" d="M86.1157 48.7336C86.1157 48.7336 82.9208 89.8784 82.9208 116.303" stroke="#008E52"/>
<path id="Path 90_2" d="M91.3145 48.7336C91.3145 48.7336 88.1196 89.8784 88.1196 116.303" stroke="#008E52"/>
<path id="Path 90_3" d="M96.5112 48.7336C96.5112 48.7336 93.3164 89.8784 93.3164 116.303" stroke="#008E52"/>
<path id="Path 90_4" d="M101.709 48.7336C101.709 48.7336 98.5141 89.8784 98.5141 116.303" stroke="#008E52"/>
<path id="Path 90_5" d="M106.907 48.7336C106.907 48.7336 103.712 89.8784 103.712 116.303" stroke="#008E52"/>
<path id="Path 90_6" d="M80.9189 48.7336C80.9189 48.7336 77.7241 89.8784 77.7241 116.303" stroke="#008E52"/>
<path id="Path 90_7" d="M75.7212 48.7336C75.7212 48.7336 72.5263 89.8784 72.5263 116.303" stroke="#008E52"/>
<path id="Path 90_8" d="M70.5234 48.7336C70.5234 48.7336 67.3286 89.8784 67.3286 116.303" stroke="#008E52"/>
<path id="Path 90_9" d="M65.3252 48.7336C65.3252 48.7336 62.1303 89.8784 62.1303 116.303" stroke="#008E52"/>
<path id="Path 90_10" d="M60.1279 48.7336C60.1279 48.7336 56.9331 89.8784 56.9331 116.303" stroke="#008E52"/>
<path id="Path 90_11" d="M54.9307 48.7336C54.9307 48.7336 51.7358 89.8784 51.7358 116.303" stroke="#008E52"/>
<path id="Path 90_12" d="M49.7324 48.7336C49.7324 48.7336 46.5375 89.8784 46.5375 116.303" stroke="#008E52"/>
<path id="Path 90_13" d="M44.5361 48.7336C44.5361 48.7336 41.3413 89.8784 41.3413 116.303" stroke="#008E52"/>
<path id="Path 90_14" d="M39.3369 48.7336C39.3369 48.7336 36.142 89.8784 36.142 116.303" stroke="#008E52"/>
</g>
</g>
</g>
<g id="Group 8_2">
<path id="Rectangle_5" fill-rule="evenodd" clip-rule="evenodd" d="M26.0806 57.0903H4.2504L7.17763 86.7464H29.0078L26.0806 57.0903Z" fill="#91ECC6"/>
<path id="Rectangle_6" fill-rule="evenodd" clip-rule="evenodd" d="M24.7818 57.0903H2.95157L5.8788 86.7464H27.709L24.7818 57.0903Z" fill="#1C1F26"/>
<ellipse id="Oval_4" rx="1.42936" ry="1.43077" transform="matrix(-1 0 0 1 13.7391 62.4236)" fill="white"/>
</g>
<path id="Path 55_2" fill-rule="evenodd" clip-rule="evenodd" d="M6.39845 79.2669C6.39845 79.2669 2.93834 78.3133 2.07774 76.8643C1.37531 75.6816 2.45735 70.5362 2.87881 68.6848C2.97252 68.2731 3.29146 67.9541 3.70109 67.8519L9.82588 66.3233C10.2573 66.2156 10.6942 66.4781 10.8017 66.9096C10.8968 67.2912 10.704 67.6848 10.3436 67.8421C8.91105 68.4673 5.53268 69.9488 5.90658 69.8555C6.26084 69.7671 9.6204 69.4825 11.2853 69.3452C11.8197 69.3011 12.3064 69.6512 12.436 70.1715C12.5822 70.7586 12.225 71.3531 11.6379 71.4996L6.62756 72.7501L10.34 73.4498C10.9433 73.5636 11.3158 74.1742 11.1408 74.7627C11.0231 75.1585 10.6815 75.4465 10.2715 75.4957L5.05356 76.1216L9.02889 77.6486C9.46795 77.8172 9.70452 78.2942 9.57308 78.7458C9.45528 79.1505 9.07357 79.4203 8.65275 79.3961L6.39845 79.2669Z" fill="#FE9C9A"/>
<path id="Path 57_2" fill-rule="evenodd" clip-rule="evenodd" d="M97.4668 90.1529L84.0826 81.2837L80.1947 85.968L46.1975 68.8366C45.6304 68.5508 45.0349 68.3251 44.4207 68.1633L34.1939 65.469C33.5914 65.3103 33.0017 65.7647 33.0017 66.3878C33.0017 66.7481 33.2056 67.0775 33.5282 67.2382L38.7458 69.8375V72.6293C38.7458 74.9572 40.1206 77.0655 42.2508 78.0044L43.0653 78.3634C44.4763 78.9853 46.1115 78.8094 47.358 77.9018L68.8761 98.8487C71.1166 101.03 74.0097 102.417 77.1132 102.799C81.5092 103.339 85.9079 101.814 89.0259 98.6687L97.4668 90.1529Z" fill="#FE9C9A"/>
</g>
<g id="Man - face 1">
<path id="Path 5_2" fill-rule="evenodd" clip-rule="evenodd" d="M61.3863 25.2216L61.7335 39.1052C61.8187 42.5144 64.607 45.2338 68.0173 45.2338V50.0511C68.0173 50.0511 64.1825 56.8618 68.8416 58.7809C73.5008 60.7 80.1938 51.5603 80.1938 51.5603L78.3719 27.3078L68.8416 22.42L61.3863 25.2216Z" fill="#FE9C9A"/>
<path id="Path 12_2" fill-rule="evenodd" clip-rule="evenodd" d="M64.0006 38.0843L66.9155 37.5273C66.9155 37.5273 66.4522 39.397 65.4307 39.3791C64.4093 39.3612 64.0006 38.0843 64.0006 38.0843Z" fill="white"/>
<path id="Path 10_2" d="M63.2226 31.237C63.2333 31.1223 63.1495 31.0205 63.0355 31.0097C62.9214 30.9989 62.8202 31.0831 62.8094 31.1978L62.3491 36.1061H64.2173C64.3319 36.1061 64.4248 36.0127 64.4248 35.8975C64.4248 35.7823 64.3319 35.6889 64.2173 35.6889H62.805L63.2226 31.237Z" fill="#19243D"/>
<path id="Rectangle_7" fill-rule="evenodd" clip-rule="evenodd" d="M66.8256 28.6101C66.8156 28.3222 66.574 28.0969 66.2861 28.107L64.8402 28.1578C64.5524 28.1679 64.3273 28.4093 64.3373 28.6971C64.3473 28.9851 64.5889 29.2103 64.8768 29.2002L66.3227 29.1495C66.6105 29.1394 66.8356 28.8979 66.8256 28.6101Z" fill="#19243D"/>
<path id="Rectangle_8" fill-rule="evenodd" clip-rule="evenodd" d="M62.8842 28.8184C62.8742 28.5305 62.6326 28.3052 62.3447 28.3153L60.8988 28.366C60.611 28.3762 60.3859 28.6176 60.3959 28.9054C60.4059 29.1933 60.6475 29.4186 60.9354 29.4085L62.3813 29.3577C62.6691 29.3476 62.8942 29.1062 62.8842 28.8184Z" fill="#19243D"/>
<path id="Path 11" d="M73.8562 29.9586C73.8562 29.9586 74.7541 30.2922 74.1253 31.5907" stroke="#19243D" stroke-width="0.8" stroke-linecap="round"/>
<path id="Oval_5" fill-rule="evenodd" clip-rule="evenodd" d="M70.1318 30.3835C70.1318 32.1117 68.7384 33.5127 67.0195 33.5127C65.3006 33.5127 63.9072 32.1117 63.9072 30.3835C63.9072 28.6553 65.3006 27.2543 67.0195 27.2543C68.7384 27.2543 70.1318 28.6553 70.1318 30.3835ZM64.3219 30.3832C64.3219 31.881 65.5296 33.0952 67.0193 33.0952C68.509 33.0952 69.7166 31.881 69.7166 30.3832C69.7166 28.8854 68.509 27.6712 67.0193 27.6712C65.5296 27.6712 64.3219 28.8854 64.3219 30.3832Z" fill="white"/>
<g id="Group 4">
<path id="Oval_6" fill-rule="evenodd" clip-rule="evenodd" d="M62.7661 30.5916C62.7661 32.3199 61.3727 33.7209 59.6538 33.7209C57.9349 33.7209 56.5415 32.3199 56.5415 30.5916C56.5415 28.8634 57.9349 27.4624 59.6538 27.4624C61.3727 27.4624 62.7661 28.8634 62.7661 30.5916ZM56.9568 30.5919C56.9568 32.0897 58.1645 33.3039 59.6542 33.3039C61.1439 33.3039 62.3515 32.0897 62.3515 30.5919C62.3515 29.0941 61.1439 27.8799 59.6542 27.8799C58.1645 27.8799 56.9568 29.0941 56.9568 30.5919Z" fill="white"/>
<path id="Path" d="M61.6812 32.9647C61.7681 32.8896 61.778 32.7578 61.7032 32.6705C61.6285 32.5832 61.4975 32.5733 61.4106 32.6484C60.9247 33.0687 60.3069 33.3036 59.6524 33.3036C58.1627 33.3036 56.9551 32.0894 56.9551 30.5916C56.9551 29.0938 58.1627 27.8796 59.6524 27.8796C59.7674 27.8796 59.8815 27.8869 59.9942 27.9012C60.1079 27.9156 60.2117 27.8347 60.2261 27.7204C60.2404 27.606 60.1599 27.5017 60.0462 27.4872C59.9163 27.4707 59.7848 27.4624 59.6524 27.4624C57.9336 27.4624 56.5401 28.8634 56.5401 30.5916C56.5401 32.3199 57.9336 33.7209 59.6524 33.7209C60.4072 33.7209 61.1207 33.4495 61.6812 32.9647Z" fill="#19243D"/>
</g>
<ellipse id="Oval_7" rx="0.414975" ry="0.41723" transform="matrix(-1 0 0 1 61.6573 30.3834)" fill="#19243D"/>
<ellipse id="Oval_8" rx="0.414975" ry="0.41723" transform="matrix(-1 0 0 1 65.9634 30.3834)" fill="#19243D"/>
<path id="Path 6_2" fill-rule="evenodd" clip-rule="evenodd" d="M79.228 39.5282L74.369 32.659L75.4764 31.4238C76.0042 30.835 76.0723 29.9656 75.6425 29.3019C75.1875 28.5991 74.2989 28.3164 73.5215 28.6271L73.2489 28.736C72.7512 28.9349 72.3914 29.3765 72.2973 29.9041L71.9566 31.8127C71.8997 32.1314 71.6225 32.3635 71.2988 32.3635C70.9466 32.3635 70.6543 32.0911 70.6234 31.7403C70.5271 30.6483 70.287 28.4691 69.8793 28.0924C69.3312 27.5858 67.9883 27.9673 67.7251 24.5184C65.9048 25.6928 61.3866 25.2214 61.3866 25.2214L61.5062 29.2457C61.5062 29.2457 58.168 25.9974 58.168 22.9354C58.168 19.8734 60.8467 20.8602 60.8467 20.8602C60.8467 20.8602 59.707 15.1682 63.4793 16.127C67.2516 17.0858 73.9715 15.632 78.3721 20.8602C83.4595 22.2153 82.5968 24.7505 82.0699 27.3383C81.543 29.9261 79.228 39.5282 79.228 39.5282Z" fill="#19243D"/>
<path id="Path 7_2" fill-rule="evenodd" clip-rule="evenodd" d="M68.0165 45.2335H73.7061L68.0165 47.7325V45.2335Z" fill="#19243D"/>
</g>
</g>
</g>
</svg>
