<svg width="17" height="14" viewBox="0 0 17 14" fill="none" xmlns="http://www.w3.org/2000/svg">
<path d="M16.3252 2.3073C15.7252 2.57369 15.0821 2.75255 14.4059 2.83373C15.096 2.4202 15.6263 1.76564 15.8749 0.986768C15.2305 1.36859 14.5138 1.6464 13.7539 1.79608C13.145 1.1466 12.2774 0.741943 11.3171 0.741943C9.47267 0.741943 7.97708 2.23626 7.97708 4.08069C7.97708 4.342 8.00753 4.59698 8.06461 4.8418C5.28909 4.70226 2.82943 3.37285 1.18162 1.3521C0.893663 1.84682 0.730024 2.4202 0.730024 3.03162C0.730024 4.18978 1.31862 5.21221 2.21546 5.81222C1.66746 5.79446 1.15244 5.64351 0.702116 5.39361C0.702116 5.40756 0.702116 5.42151 0.702116 5.43547C0.702116 7.0541 1.85393 8.40254 3.37996 8.71079C3.10089 8.7869 2.80532 8.82749 2.50088 8.82749C2.28523 8.82749 2.07592 8.80719 1.87169 8.7666C2.29792 10.0922 3.53092 11.0601 4.99098 11.0867C3.84932 11.9823 2.40955 12.5151 0.844191 12.5151C0.573996 12.5151 0.308875 12.4999 0.0488281 12.4681C1.52539 13.417 3.28102 13.9688 5.16731 13.9688C11.3095 13.9688 14.6685 8.88077 14.6685 4.46886C14.6685 4.32424 14.6647 4.17836 14.6596 4.03629C15.3117 3.56567 15.8774 2.97708 16.3252 2.3073Z" fill="#00D57C"/>
</svg>
